<?xml version="1.0" encoding="UTF-8" standalone="no"?>
<!-- Created with Keyshape -->
<svg xmlns="http://www.w3.org/2000/svg" viewBox="0 0 424 424" text-rendering="geometricPrecision" shape-rendering="geometricPrecision" style="white-space: pre;">
    <defs>
        <linearGradient id="Gradient-0" x1="-16.865" y1="-129.871" x2="182.971" y2="74.5909" gradientUnits="userSpaceOnUse">
            <stop offset="0" stop-color="#11171c" stop-opacity="0.46"/>
            <stop offset="1" stop-color="#11171c" stop-opacity="0.01"/>
        </linearGradient>
    </defs>
    <ellipse id="backgroundSphere" rx="212" ry="212" fill="#abe116" stroke="none" transform="translate(212,212)"/>
    <path id="africaPath" d="M153.907,351.813C157.199,354.764,161.927,354.627,166.197,355.231C170.784,355.918,174.426,353.622,178.835,353.222C180.924,353,183.038,352.984,185.14,352.924C189.074,352.69,193.183,353.738,196.928,352.135C210.499,343.406,220.48,329.788,231.253,318.595C233.213,313.742,231.023,308.205,233.42,303.436C237.072,297.254,246.52,298.143,250.141,292.371C252.235,284.302,244.7,277.995,244.384,270.66C245.489,268.781,246.905,266.978,248.317,265.238C253.402,254.268,265.509,249.218,276.172,244.116C276.86,243.337,277.829,242.797,278.238,241.791C279.156,234.515,273.311,227.537,276.709,220.109C276.865,218.897,276.956,217.652,276.736,216.442C276.35,212.905,273.976,210.017,273.24,206.545C274.201,200.007,271.535,194.141,268.76,188.471C268.53,187.276,268.673,186.056,268.805,184.861C270.241,179.9,273.239,176.419,275.895,172.187C286.005,149.9,313.95,141.592,325.594,119.991C328.337,116.203,330.445,111.637,332.054,107.153C334.584,101.527,336.62,95.4027,336.834,89.1831C335.956,88.1757,334.72,87.5503,333.356,87.5705C332.093,87.7327,330.879,88.1258,329.697,88.5858C323.37,93.8478,314.79,93.5843,307.115,92.0403C301.652,92.6688,295.693,92.346,291.746,88.1866C288.725,85.0207,290.187,80.1954,287.835,76.7441C286.584,76.1186,285.885,75.133,284.587,74.5076C273.879,70.3187,273.586,56.1975,263.126,51.69C262.267,51.0339,262.012,49.8352,261.081,49.3015C256.323,40.3083,256.718,29.612,252.395,20.431C249.145,12.4757,244.842,5.12375,240.255,-2.17968C236.933,-10.5477,234.988,-19.4178,233.896,-28.3339C233.346,-28.6268,232.88,-29.2067,232.127,-28.8249C229.756,-28.233,227.289,-28.1147,224.897,-27.6124L195.976,-31.0282C187.33,-33.0004,179.328,-37.1119,170.649,-38.9678C168.628,-39.2267,166.523,-39.4669,164.54,-38.8235C160.891,-34.7231,161.75,-27.047,155.278,-25.4483C151.321,-27.296,146.819,-26.5241,142.607,-27.2158C141.728,-27.5881,140.78,-27.8346,140.008,-28.4265C133.122,-37.2864,121.302,-39.5356,110.879,-40.9229C107.53,-47.8378,113.474,-55.6129,114.623,-62.6702C111.102,-63.0187,109.663,-66.6673,106.558,-67.6807C91.4666,-65.2157,75.871,-64.5277,60.4756,-63.4333C58.5604,-62.9849,56.8268,-62.084,55.0358,-61.3441C44.7459,-53.584,30.2718,-53.6945,18.9525,-59.0523C16.2259,-53.7955,14.1377,-47.706,9.86691,-43.7028C-0.182727,-41.7934,-4.7627,-31.5435,-4.02175,-22.0953C-4.256,-20.0485,-4.93223,-18.005,-6.24865,-16.3966C-26.1858,-10.5388,-30.1874,12.2351,-45.0393,24.1889C-45.9466,25.0801,-46.1212,26.4452,-46.3821,27.6289C-46.6295,34.4975,-39.3579,38.8593,-39.703,45.7341C-43.6496,52.2859,-40.0072,61.4529,-46.7222,66.7546C-46.814,67.263,-46.8741,67.7783,-47.0489,68.2691C-42.6384,71.3137,-43.3448,77.1714,-44.0854,81.663C-35.8557,87.5924,-24.9847,93.6949,-23.9729,105.375C-23.2076,106.074,-23.3147,107.249,-22.4736,107.894C-15.8299,115.303,-5.36313,117.184,0.0794346,125.948C0.828023,126.718,1.57287,127.538,2.62683,127.9C3.80929,128.213,5.03666,128.071,6.22973,127.923C14.9822,122.935,24.7709,124.214,34.2762,125.291C37.0042,125.6,39.7089,125.892,42.3591,126.015C44.6012,125.466,46.6889,124.52,48.789,123.668C50.1762,122.706,51.717,121.953,53.2289,121.184C61.4497,114.348,73.3133,116.33,81.2421,122.503C83.3366,123.933,79.4954,126.65,82.1155,127.215C89.472,127.726,98.2381,126.866,102.888,133.371C108.679,142.243,97.2904,149.978,98.9072,158.665C101.163,166.101,108.713,168.775,114.983,171.909C116.596,174.187,114.364,176.96,115.523,179.451C119.99,186.781,123.784,194.699,122.878,203.823C130.047,213.687,122.235,224.848,117.159,233.611C116.204,236.848,116.446,240.261,116.601,243.584C120.466,265.031,132.187,283.84,136.861,305.02C143.242,318.116,151.987,330.491,152.171,345.694C152.744,347.743,152.702,349.972,153.907,351.813Z" fill="none" fill-opacity="1" fill-rule="evenodd" stroke="#000000" display="none" transform="translate(46.654,68.0895)"/>
    <path id="shadow-2" d="M72.2867,112.109L16.2817,58.5646L-13.4099,10.5817L-49.5374,-57.936C-57.2002,-79.975,-52.5722,-191.488,-52.3569,-196.567C-51.9081,-190.786,4.49993,-124.162,40.4558,-108.195L-29.2771,-172.873C-7.412,-190.46,31.7974,-228.442,31.7974,-228.442L219.273,-56.5357C206.329,23.6245,148.439,88.734,72.2867,112.109ZM-52.3569,-196.567C-52.3519,-196.685,-52.3493,-196.746,-52.3493,-196.746C-52.3597,-196.695,-52.3623,-196.635,-52.3569,-196.567Z" fill="url(#Gradient-0)" stroke-linecap="round" stroke="none" fill-rule="evenodd" opacity="1" stroke-width="0" display="none" transform="translate(202.006,302.592)"/>
    <path id="body-2" d="M68.58,259.645C-10.4747,202.847,-47.4267,58.7886,0,0C13.0219,55.7428,72.7168,79.3102,184.389,89.6636C119.028,109.124,61.717,130.71,68.58,259.645Z" fill="#ffffff" stroke="none" display="none" transform="translate(150.283,102.876)"/>
    <path id="shadow" d="M47.5788,118.087L-8.16222,61.598L6.34967,24.1757L-122.959,-111.614C-80.0692,-106.07,-24.0872,-117.898,13.3636,-134.67L-33.0783,-176.954C-11.2132,-194.541,30.2661,-230.259,30.2661,-230.259L217.642,-47.6497C200.278,36.7569,132.742,102.85,47.5788,118.087Z" fill="url(#Gradient-0)" stroke-linecap="round" stroke="none" fill-rule="evenodd" opacity="1" transform="translate(202.006,302.592)"/>
    <path id="body" d="M-70.5,261.6C-60.8091,142.212,-109.152,102.585,-185.622,90.0492C-28.8538,70.4274,-8.84738,37.3471,0,0C36.3906,55.5194,33.4058,151.795,-70.5,261.6Z" stroke="none" fill="#ffffff" stroke-linecap="round" stroke-linejoin="round" transform="translate(264.496,100.921)"/>
    <ellipse id="head" rx="41.4942" ry="41.4942" fill="#ffffff" stroke-linecap="round" stroke="none" transform="translate(204.314,102.876)"/>
</svg>
