<svg xmlns="http://www.w3.org/2000/svg" xmlns:xlink="http://www.w3.org/1999/xlink" viewBox="0 0 1920 1080"><g filter="drop-shadow(30px 70px 7px rgba(0,0,0,0.55))" transform="translate(220,179.4)"><g transform="translate(0,570.6)"><ellipse cx="90" cy="90" rx="90" ry="90" fill="#03956d" stroke="#abe116"/><ellipse cx="90" cy="90" rx="75" ry="75" fill="#37ab5d" stroke="#abe116"/><ellipse cx="90" cy="90" rx="60" ry="60" fill="#85b744" stroke="#abe116"/></g><g transform="translate(650,270.6)"><ellipse cx="90" cy="90" rx="90" ry="90" fill="#03956d" stroke="#abe116"/><ellipse cx="90" cy="90" rx="75" ry="75" fill="#37ab5d" stroke="#abe116"/><ellipse cx="90" cy="90" rx="60" ry="60" fill="#85b744" stroke="#abe116"/></g><g transform="translate(30,119.9)"><ellipse cx="75.9" cy="75.9" rx="60" ry="60" fill="#85b744" stroke="#abe116"/><g><ellipse cx="75.9" cy="75.9" rx="75.9" ry="75.9" fill="none" stroke="#edf5f9"/><ellipse cx="75.9" cy="151.8" rx="8.3" ry="8.3" fill="#edf5f9"/><ellipse cx="26" cy="131.6" rx="8.3" ry="8.3" fill="#edf5f9"/></g></g><g transform="translate(648.2,527.5)"><ellipse cx="75.9" cy="75.9" rx="60" ry="60" fill="#85b744" stroke="#abe116"/><g><ellipse cx="75.9" cy="75.9" rx="75.9" ry="75.9" fill="none" stroke="#edf5f9"/><ellipse cx="75.9" cy="151.8" rx="8.3" ry="8.3" fill="#edf5f9"/><ellipse cx="26" cy="131.6" rx="8.3" ry="8.3" fill="#edf5f9"/></g></g><g transform="translate(1086.4,1.8)"><ellipse cx="75.9" cy="75.9" rx="60" ry="60" fill="#85b744" stroke="#abe116"/><g><ellipse cx="75.9" cy="75.9" rx="75.9" ry="75.9" fill="none" stroke="#edf5f9"/><ellipse cx="75.9" cy="151.8" rx="8.3" ry="8.3" fill="#edf5f9"/><ellipse cx="26" cy="131.6" rx="8.3" ry="8.3" fill="#edf5f9"/></g></g><g transform="translate(1314.1,564.2)"><ellipse cx="75.9" cy="75.9" rx="60" ry="60" fill="#85b744" stroke="#abe116"/><g><ellipse cx="75.9" cy="75.9" rx="75.9" ry="75.9" fill="none" stroke="#edf5f9"/><ellipse cx="75.9" cy="151.8" rx="8.3" ry="8.3" fill="#edf5f9"/><ellipse cx="26" cy="131.6" rx="8.3" ry="8.3" fill="#edf5f9"/></g></g><g transform="translate(410.5,-41.6)"><ellipse cx="75.9" cy="75.9" rx="60" ry="60" fill="#85b744" stroke="#abe116"/><g><ellipse cx="75.9" cy="75.9" rx="75.9" ry="75.9" fill="none" stroke="#edf5f9"/><ellipse cx="75.9" cy="151.8" rx="8.3" ry="8.3" fill="#edf5f9"/><ellipse cx="26" cy="131.6" rx="8.3" ry="8.3" fill="#edf5f9"/></g></g><g transform="translate(883.5,327.4)"><ellipse cx="75.9" cy="75.9" rx="60" ry="60" fill="#85b744" stroke="#abe116"/><g><ellipse cx="75.9" cy="75.9" rx="75.9" ry="75.9" fill="none" stroke="#edf5f9"/><ellipse cx="75.9" cy="151.8" rx="8.3" ry="8.3" fill="#edf5f9"/><ellipse cx="26" cy="131.6" rx="8.3" ry="8.3" fill="#edf5f9"/></g></g><g transform="translate(227.6,220.6)"><ellipse cx="75.9" cy="75.9" rx="60" ry="60" fill="#85b744" stroke="#abe116"/><g><ellipse cx="75.9" cy="75.9" rx="75.9" ry="75.9" fill="none" stroke="#edf5f9"/><ellipse cx="75.9" cy="151.8" rx="8.3" ry="8.3" fill="#edf5f9"/><ellipse cx="26" cy="131.6" rx="8.3" ry="8.3" fill="#edf5f9"/></g></g><g transform="translate(1154,276.5)"><ellipse cx="75.9" cy="75.9" rx="60" ry="60" fill="#85b744" stroke="#abe116"/><g><ellipse cx="75.9" cy="75.9" rx="75.9" ry="75.9" fill="none" stroke="#edf5f9"/><ellipse cx="75.9" cy="151.8" rx="8.3" ry="8.3" fill="#edf5f9"/><ellipse cx="26" cy="131.6" rx="8.3" ry="8.3" fill="#edf5f9"/></g></g><g transform="translate(269.2,420.6)"><ellipse cx="75.9" cy="75.9" rx="60" ry="60" fill="#85b744" stroke="#abe116"/><g><ellipse cx="75.9" cy="75.9" rx="75.9" ry="75.9" fill="none" stroke="#edf5f9"/><ellipse cx="75.9" cy="151.8" rx="8.3" ry="8.3" fill="#edf5f9"/><ellipse cx="26" cy="131.6" rx="8.3" ry="8.3" fill="#edf5f9"/></g></g><g transform="translate(917.8,516.5)"><ellipse cx="75.9" cy="75.9" rx="60" ry="60" fill="#85b744" stroke="#abe116"/><g><ellipse cx="75.9" cy="75.9" rx="75.9" ry="75.9" fill="none" stroke="#edf5f9"/><ellipse cx="75.9" cy="151.8" rx="8.3" ry="8.3" fill="#edf5f9"/><ellipse cx="26" cy="131.6" rx="8.3" ry="8.3" fill="#edf5f9"/></g></g></g></svg>