<?xml version="1.0" encoding="UTF-8" standalone="no"?>
<!-- Created with Keyshape -->
<svg xmlns="http://www.w3.org/2000/svg" viewBox="0 0 1235 650">
    <rect width="1235" height="650" fill="#ffffff" stroke="none" transform="translate(617.5,325) translate(-617.5,-325)"/>
    <g fill-rule="evenodd" clip-rule="evenodd" transform="translate(96.378,96.378) translate(-96.378,-96.378)">
        <path fill="#fff" d="M0,0L192.756,0L192.756,192.756L0,192.756L0,0Z" transform="translate(96.378,96.378) translate(-96.378,-96.378)"/>
        <path fill="#cf4044" d="M-237.19,391.754L-237.19,-258.246L-517.171,-258.246L-517.171,391.754L-237.19,391.754ZM717.829,391.754L717.829,-258.246L438.785,-258.246L438.785,391.754L717.829,391.754ZM97.6555,363.203L74.0762,363.203L74.0762,238.39L-52.4748,251.446L-28.8956,201.492L-166.293,89.9007L-129.821,67.2696L-165.19,-39.4376L-90.0422,-19.2409L-62.2247,-62.0684L33.3601,43.6007L-17.1059,-159.55L42.9515,-121.599L97.6555,-230.922L152.359,-121.599L213.506,-159.55L161.95,43.6007L258.466,-62.0684L286.456,-19.2409L360.501,-39.4376L325.126,67.2696L362.706,89.9007L224.213,201.492L248.888,251.446L122.179,238.39L122.179,363.203L97.6555,363.203Z" transform="translate(613.549,354.625) translate(-96.378,-96.3785)"/>
    </g>
</svg>
