<?xml version="1.0" encoding="UTF-8" standalone="no"?>
<!-- Created with Keyshape -->
<svg xmlns="http://www.w3.org/2000/svg" enable-background="new 0 0 900 600" viewBox="0 0 1235 650">
    <rect fill="#039" width="1235" height="650" transform="translate(405,270) translate(-405,-270)"/>
    <g fill="#fc0" transform="translate(617.5,325) scale(30,30) translate(0,0.0954915)">
        <g transform="translate(0,-6.09549) translate(0,0.0954915)">
            <g id="s-2" transform="translate(0,-0.0954915) translate(0,0.0954915)">
                <g id="c-6" transform="translate(0,-0.447217) translate(0,0.447217)">
                    <path id="t-11" d="M0,0L0,1L0.5,1Z" transform="translate(0.0832556,-0.447217) rotate(18) translate(-0.25,-0.5)"/>
                    <g transform="translate(0.0712529,-0.447217) scale(-1,1) translate(0.0712529,0.447217)">
                        <path id="t-12" d="M0,0L0,1L0.5,1Z" transform="translate(0.0832556,-0.447217) rotate(18) translate(-0.25,-0.5)"/>
                    </g>
                </g>
                <g id="a-3" transform="translate(0.364912,0.25) translate(-0.364912,-0.25)">
                    <g transform="translate(0.425329,-0.138198) rotate(72) translate(0,0.447217)">
                        <g id="c-7" transform="translate(0,-0.447217) translate(0,0.447217)">
                            <path id="t-13" d="M0,0L0,1L0.5,1Z" transform="translate(0.0832556,-0.447217) rotate(18) translate(-0.25,-0.5)"/>
                            <g transform="translate(0.0712529,-0.447217) scale(-1,1) translate(0.0712529,0.447217)">
                                <path id="t-14" d="M0,0L0,1L0.5,1Z" transform="translate(0.0832556,-0.447217) rotate(18) translate(-0.25,-0.5)"/>
                            </g>
                        </g>
                    </g>
                    <g transform="translate(0.262868,0.361807) rotate(144) translate(0,0.447217)">
                        <g id="c-8" transform="translate(0,-0.447217) translate(0,0.447217)">
                            <path id="t-15" d="M0,0L0,1L0.5,1Z" transform="translate(0.0832556,-0.447217) rotate(18) translate(-0.25,-0.5)"/>
                            <g transform="translate(0.0712529,-0.447217) scale(-1,1) translate(0.0712529,0.447217)">
                                <path id="t-16" d="M0,0L0,1L0.5,1Z" transform="translate(0.0832556,-0.447217) rotate(18) translate(-0.25,-0.5)"/>
                            </g>
                        </g>
                    </g>
                </g>
                <g transform="translate(-0.364912,0.25) scale(-1,1) translate(-0.364912,-0.25)">
                    <g id="a-4" transform="translate(0.364912,0.25) translate(-0.364912,-0.25)">
                        <g transform="translate(0.425329,-0.138198) rotate(72) translate(0,0.447217)">
                            <g id="c-9" transform="translate(0,-0.447217) translate(0,0.447217)">
                                <path id="t-17" d="M0,0L0,1L0.5,1Z" transform="translate(0.0832556,-0.447217) rotate(18) translate(-0.25,-0.5)"/>
                                <g transform="translate(0.0712529,-0.447217) scale(-1,1) translate(0.0712529,0.447217)">
                                    <path id="t-18" d="M0,0L0,1L0.5,1Z" transform="translate(0.0832556,-0.447217) rotate(18) translate(-0.25,-0.5)"/>
                                </g>
                            </g>
                        </g>
                        <g transform="translate(0.262868,0.361807) rotate(144) translate(0,0.447217)">
                            <g id="c-10" transform="translate(0,-0.447217) translate(0,0.447217)">
                                <path id="t-19" d="M0,0L0,1L0.5,1Z" transform="translate(0.0832556,-0.447217) rotate(18) translate(-0.25,-0.5)"/>
                                <g transform="translate(0.0712529,-0.447217) scale(-1,1) translate(0.0712529,0.447217)">
                                    <path id="t-20" d="M0,0L0,1L0.5,1Z" transform="translate(0.0832556,-0.447217) rotate(18) translate(-0.25,-0.5)"/>
                                </g>
                            </g>
                        </g>
                    </g>
                </g>
            </g>
        </g>
        <g transform="translate(0,5.90451) translate(0,0.0954915)">
            <g id="s-3" transform="translate(0,-0.0954915) translate(0,0.0954915)">
                <g id="c-11" transform="translate(0,-0.447217) translate(0,0.447217)">
                    <path id="t-21" d="M0,0L0,1L0.5,1Z" transform="translate(0.0832556,-0.447217) rotate(18) translate(-0.25,-0.5)"/>
                    <g transform="translate(0.0712529,-0.447217) scale(-1,1) translate(0.0712529,0.447217)">
                        <path id="t-22" d="M0,0L0,1L0.5,1Z" transform="translate(0.0832556,-0.447217) rotate(18) translate(-0.25,-0.5)"/>
                    </g>
                </g>
                <g id="a-5" transform="translate(0.364912,0.25) translate(-0.364912,-0.25)">
                    <g transform="translate(0.425329,-0.138198) rotate(72) translate(0,0.447217)">
                        <g id="c-12" transform="translate(0,-0.447217) translate(0,0.447217)">
                            <path id="t-23" d="M0,0L0,1L0.5,1Z" transform="translate(0.0832556,-0.447217) rotate(18) translate(-0.25,-0.5)"/>
                            <g transform="translate(0.0712529,-0.447217) scale(-1,1) translate(0.0712529,0.447217)">
                                <path id="t-24" d="M0,0L0,1L0.5,1Z" transform="translate(0.0832556,-0.447217) rotate(18) translate(-0.25,-0.5)"/>
                            </g>
                        </g>
                    </g>
                    <g transform="translate(0.262868,0.361807) rotate(144) translate(0,0.447217)">
                        <g id="c-13" transform="translate(0,-0.447217) translate(0,0.447217)">
                            <path id="t-25" d="M0,0L0,1L0.5,1Z" transform="translate(0.0832556,-0.447217) rotate(18) translate(-0.25,-0.5)"/>
                            <g transform="translate(0.0712529,-0.447217) scale(-1,1) translate(0.0712529,0.447217)">
                                <path id="t-26" d="M0,0L0,1L0.5,1Z" transform="translate(0.0832556,-0.447217) rotate(18) translate(-0.25,-0.5)"/>
                            </g>
                        </g>
                    </g>
                </g>
                <g transform="translate(-0.364912,0.25) scale(-1,1) translate(-0.364912,-0.25)">
                    <g id="a-6" transform="translate(0.364912,0.25) translate(-0.364912,-0.25)">
                        <g transform="translate(0.425329,-0.138198) rotate(72) translate(0,0.447217)">
                            <g id="c-14" transform="translate(0,-0.447217) translate(0,0.447217)">
                                <path id="t-27" d="M0,0L0,1L0.5,1Z" transform="translate(0.0832556,-0.447217) rotate(18) translate(-0.25,-0.5)"/>
                                <g transform="translate(0.0712529,-0.447217) scale(-1,1) translate(0.0712529,0.447217)">
                                    <path id="t-28" d="M0,0L0,1L0.5,1Z" transform="translate(0.0832556,-0.447217) rotate(18) translate(-0.25,-0.5)"/>
                                </g>
                            </g>
                        </g>
                        <g transform="translate(0.262868,0.361807) rotate(144) translate(0,0.447217)">
                            <g id="c-15" transform="translate(0,-0.447217) translate(0,0.447217)">
                                <path id="t-29" d="M0,0L0,1L0.5,1Z" transform="translate(0.0832556,-0.447217) rotate(18) translate(-0.25,-0.5)"/>
                                <g transform="translate(0.0712529,-0.447217) scale(-1,1) translate(0.0712529,0.447217)">
                                    <path id="t-30" d="M0,0L0,1L0.5,1Z" transform="translate(0.0832556,-0.447217) rotate(18) translate(-0.25,-0.5)"/>
                                </g>
                            </g>
                        </g>
                    </g>
                </g>
            </g>
        </g>
        <g id="l" transform="translate(-4.5,-0.0954915) translate(4.5,0.0954915)">
            <g transform="translate(-6,-0.0954915) translate(0,0.0954915)">
                <g id="s-4" transform="translate(0,-0.0954915) translate(0,0.0954915)">
                    <g id="c-16" transform="translate(0,-0.447217) translate(0,0.447217)">
                        <path id="t-31" d="M0,0L0,1L0.5,1Z" transform="translate(0.0832556,-0.447217) rotate(18) translate(-0.25,-0.5)"/>
                        <g transform="translate(0.0712529,-0.447217) scale(-1,1) translate(0.0712529,0.447217)">
                            <path id="t-32" d="M0,0L0,1L0.5,1Z" transform="translate(0.0832556,-0.447217) rotate(18) translate(-0.25,-0.5)"/>
                        </g>
                    </g>
                    <g id="a-7" transform="translate(0.364912,0.25) translate(-0.364912,-0.25)">
                        <g transform="translate(0.425329,-0.138198) rotate(72) translate(0,0.447217)">
                            <g id="c-17" transform="translate(0,-0.447217) translate(0,0.447217)">
                                <path id="t-33" d="M0,0L0,1L0.5,1Z" transform="translate(0.0832556,-0.447217) rotate(18) translate(-0.25,-0.5)"/>
                                <g transform="translate(0.0712529,-0.447217) scale(-1,1) translate(0.0712529,0.447217)">
                                    <path id="t-34" d="M0,0L0,1L0.5,1Z" transform="translate(0.0832556,-0.447217) rotate(18) translate(-0.25,-0.5)"/>
                                </g>
                            </g>
                        </g>
                        <g transform="translate(0.262868,0.361807) rotate(144) translate(0,0.447217)">
                            <g id="c-18" transform="translate(0,-0.447217) translate(0,0.447217)">
                                <path id="t-35" d="M0,0L0,1L0.5,1Z" transform="translate(0.0832556,-0.447217) rotate(18) translate(-0.25,-0.5)"/>
                                <g transform="translate(0.0712529,-0.447217) scale(-1,1) translate(0.0712529,0.447217)">
                                    <path id="t-36" d="M0,0L0,1L0.5,1Z" transform="translate(0.0832556,-0.447217) rotate(18) translate(-0.25,-0.5)"/>
                                </g>
                            </g>
                        </g>
                    </g>
                    <g transform="translate(-0.364912,0.25) scale(-1,1) translate(-0.364912,-0.25)">
                        <g id="a-8" transform="translate(0.364912,0.25) translate(-0.364912,-0.25)">
                            <g transform="translate(0.425329,-0.138198) rotate(72) translate(0,0.447217)">
                                <g id="c-19" transform="translate(0,-0.447217) translate(0,0.447217)">
                                    <path id="t-37" d="M0,0L0,1L0.5,1Z" transform="translate(0.0832556,-0.447217) rotate(18) translate(-0.25,-0.5)"/>
                                    <g transform="translate(0.0712529,-0.447217) scale(-1,1) translate(0.0712529,0.447217)">
                                        <path id="t-38" d="M0,0L0,1L0.5,1Z" transform="translate(0.0832556,-0.447217) rotate(18) translate(-0.25,-0.5)"/>
                                    </g>
                                </g>
                            </g>
                            <g transform="translate(0.262868,0.361807) rotate(144) translate(0,0.447217)">
                                <g id="c-20" transform="translate(0,-0.447217) translate(0,0.447217)">
                                    <path id="t-39" d="M0,0L0,1L0.5,1Z" transform="translate(0.0832556,-0.447217) rotate(18) translate(-0.25,-0.5)"/>
                                    <g transform="translate(0.0712529,-0.447217) scale(-1,1) translate(0.0712529,0.447217)">
                                        <path id="t-40" d="M0,0L0,1L0.5,1Z" transform="translate(0.0832556,-0.447217) rotate(18) translate(-0.25,-0.5)"/>
                                    </g>
                                </g>
                            </g>
                        </g>
                    </g>
                </g>
            </g>
            <g transform="translate(-3.05613,-5.1189) rotate(-144) translate(0,0.0954915)">
                <g id="s-5" transform="translate(0,-0.0954915) translate(0,0.0954915)">
                    <g id="c-21" transform="translate(0,-0.447217) translate(0,0.447217)">
                        <path id="t-41" d="M0,0L0,1L0.5,1Z" transform="translate(0.0832556,-0.447217) rotate(18) translate(-0.25,-0.5)"/>
                        <g transform="translate(0.0712529,-0.447217) scale(-1,1) translate(0.0712529,0.447217)">
                            <path id="t-42" d="M0,0L0,1L0.5,1Z" transform="translate(0.0832556,-0.447217) rotate(18) translate(-0.25,-0.5)"/>
                        </g>
                    </g>
                    <g id="a-9" transform="translate(0.364912,0.25) translate(-0.364912,-0.25)">
                        <g transform="translate(0.425329,-0.138198) rotate(72) translate(0,0.447217)">
                            <g id="c-22" transform="translate(0,-0.447217) translate(0,0.447217)">
                                <path id="t-43" d="M0,0L0,1L0.5,1Z" transform="translate(0.0832556,-0.447217) rotate(18) translate(-0.25,-0.5)"/>
                                <g transform="translate(0.0712529,-0.447217) scale(-1,1) translate(0.0712529,0.447217)">
                                    <path id="t-44" d="M0,0L0,1L0.5,1Z" transform="translate(0.0832556,-0.447217) rotate(18) translate(-0.25,-0.5)"/>
                                </g>
                            </g>
                        </g>
                        <g transform="translate(0.262868,0.361807) rotate(144) translate(0,0.447217)">
                            <g id="c-23" transform="translate(0,-0.447217) translate(0,0.447217)">
                                <path id="t-45" d="M0,0L0,1L0.5,1Z" transform="translate(0.0832556,-0.447217) rotate(18) translate(-0.25,-0.5)"/>
                                <g transform="translate(0.0712529,-0.447217) scale(-1,1) translate(0.0712529,0.447217)">
                                    <path id="t-46" d="M0,0L0,1L0.5,1Z" transform="translate(0.0832556,-0.447217) rotate(18) translate(-0.25,-0.5)"/>
                                </g>
                            </g>
                        </g>
                    </g>
                    <g transform="translate(-0.364912,0.25) scale(-1,1) translate(-0.364912,-0.25)">
                        <g id="a-10" transform="translate(0.364912,0.25) translate(-0.364912,-0.25)">
                            <g transform="translate(0.425329,-0.138198) rotate(72) translate(0,0.447217)">
                                <g id="c-24" transform="translate(0,-0.447217) translate(0,0.447217)">
                                    <path id="t-47" d="M0,0L0,1L0.5,1Z" transform="translate(0.0832556,-0.447217) rotate(18) translate(-0.25,-0.5)"/>
                                    <g transform="translate(0.0712529,-0.447217) scale(-1,1) translate(0.0712529,0.447217)">
                                        <path id="t-48" d="M0,0L0,1L0.5,1Z" transform="translate(0.0832556,-0.447217) rotate(18) translate(-0.25,-0.5)"/>
                                    </g>
                                </g>
                            </g>
                            <g transform="translate(0.262868,0.361807) rotate(144) translate(0,0.447217)">
                                <g id="c-25" transform="translate(0,-0.447217) translate(0,0.447217)">
                                    <path id="t-49" d="M0,0L0,1L0.5,1Z" transform="translate(0.0832556,-0.447217) rotate(18) translate(-0.25,-0.5)"/>
                                    <g transform="translate(0.0712529,-0.447217) scale(-1,1) translate(0.0712529,0.447217)">
                                        <path id="t-50" d="M0,0L0,1L0.5,1Z" transform="translate(0.0832556,-0.447217) rotate(18) translate(-0.25,-0.5)"/>
                                    </g>
                                </g>
                            </g>
                        </g>
                    </g>
                </g>
            </g>
            <g transform="translate(-5.14002,-2.92275) rotate(144) translate(0,0.0954915)">
                <g id="s-6" transform="translate(0,-0.0954915) translate(0,0.0954915)">
                    <g id="c-26" transform="translate(0,-0.447217) translate(0,0.447217)">
                        <path id="t-51" d="M0,0L0,1L0.5,1Z" transform="translate(0.0832556,-0.447217) rotate(18) translate(-0.25,-0.5)"/>
                        <g transform="translate(0.0712529,-0.447217) scale(-1,1) translate(0.0712529,0.447217)">
                            <path id="t-52" d="M0,0L0,1L0.5,1Z" transform="translate(0.0832556,-0.447217) rotate(18) translate(-0.25,-0.5)"/>
                        </g>
                    </g>
                    <g id="a-11" transform="translate(0.364912,0.25) translate(-0.364912,-0.25)">
                        <g transform="translate(0.425329,-0.138198) rotate(72) translate(0,0.447217)">
                            <g id="c-27" transform="translate(0,-0.447217) translate(0,0.447217)">
                                <path id="t-53" d="M0,0L0,1L0.5,1Z" transform="translate(0.0832556,-0.447217) rotate(18) translate(-0.25,-0.5)"/>
                                <g transform="translate(0.0712529,-0.447217) scale(-1,1) translate(0.0712529,0.447217)">
                                    <path id="t-54" d="M0,0L0,1L0.5,1Z" transform="translate(0.0832556,-0.447217) rotate(18) translate(-0.25,-0.5)"/>
                                </g>
                            </g>
                        </g>
                        <g transform="translate(0.262868,0.361807) rotate(144) translate(0,0.447217)">
                            <g id="c-28" transform="translate(0,-0.447217) translate(0,0.447217)">
                                <path id="t-55" d="M0,0L0,1L0.5,1Z" transform="translate(0.0832556,-0.447217) rotate(18) translate(-0.25,-0.5)"/>
                                <g transform="translate(0.0712529,-0.447217) scale(-1,1) translate(0.0712529,0.447217)">
                                    <path id="t-56" d="M0,0L0,1L0.5,1Z" transform="translate(0.0832556,-0.447217) rotate(18) translate(-0.25,-0.5)"/>
                                </g>
                            </g>
                        </g>
                    </g>
                    <g transform="translate(-0.364912,0.25) scale(-1,1) translate(-0.364912,-0.25)">
                        <g id="a-12" transform="translate(0.364912,0.25) translate(-0.364912,-0.25)">
                            <g transform="translate(0.425329,-0.138198) rotate(72) translate(0,0.447217)">
                                <g id="c-29" transform="translate(0,-0.447217) translate(0,0.447217)">
                                    <path id="t-57" d="M0,0L0,1L0.5,1Z" transform="translate(0.0832556,-0.447217) rotate(18) translate(-0.25,-0.5)"/>
                                    <g transform="translate(0.0712529,-0.447217) scale(-1,1) translate(0.0712529,0.447217)">
                                        <path id="t-58" d="M0,0L0,1L0.5,1Z" transform="translate(0.0832556,-0.447217) rotate(18) translate(-0.25,-0.5)"/>
                                    </g>
                                </g>
                            </g>
                            <g transform="translate(0.262868,0.361807) rotate(144) translate(0,0.447217)">
                                <g id="c-30" transform="translate(0,-0.447217) translate(0,0.447217)">
                                    <path id="t-59" d="M0,0L0,1L0.5,1Z" transform="translate(0.0832556,-0.447217) rotate(18) translate(-0.25,-0.5)"/>
                                    <g transform="translate(0.0712529,-0.447217) scale(-1,1) translate(0.0712529,0.447217)">
                                        <path id="t-60" d="M0,0L0,1L0.5,1Z" transform="translate(0.0832556,-0.447217) rotate(18) translate(-0.25,-0.5)"/>
                                    </g>
                                </g>
                            </g>
                        </g>
                    </g>
                </g>
            </g>
            <g transform="translate(-5.10533,2.97049) rotate(72) translate(0,0.0954915)">
                <g id="s-7" transform="translate(0,-0.0954915) translate(0,0.0954915)">
                    <g id="c-31" transform="translate(0,-0.447217) translate(0,0.447217)">
                        <path id="t-61" d="M0,0L0,1L0.5,1Z" transform="translate(0.0832556,-0.447217) rotate(18) translate(-0.25,-0.5)"/>
                        <g transform="translate(0.0712529,-0.447217) scale(-1,1) translate(0.0712529,0.447217)">
                            <path id="t-62" d="M0,0L0,1L0.5,1Z" transform="translate(0.0832556,-0.447217) rotate(18) translate(-0.25,-0.5)"/>
                        </g>
                    </g>
                    <g id="a-13" transform="translate(0.364912,0.25) translate(-0.364912,-0.25)">
                        <g transform="translate(0.425329,-0.138198) rotate(72) translate(0,0.447217)">
                            <g id="c-32" transform="translate(0,-0.447217) translate(0,0.447217)">
                                <path id="t-63" d="M0,0L0,1L0.5,1Z" transform="translate(0.0832556,-0.447217) rotate(18) translate(-0.25,-0.5)"/>
                                <g transform="translate(0.0712529,-0.447217) scale(-1,1) translate(0.0712529,0.447217)">
                                    <path id="t-64" d="M0,0L0,1L0.5,1Z" transform="translate(0.0832556,-0.447217) rotate(18) translate(-0.25,-0.5)"/>
                                </g>
                            </g>
                        </g>
                        <g transform="translate(0.262868,0.361807) rotate(144) translate(0,0.447217)">
                            <g id="c-33" transform="translate(0,-0.447217) translate(0,0.447217)">
                                <path id="t-65" d="M0,0L0,1L0.5,1Z" transform="translate(0.0832556,-0.447217) rotate(18) translate(-0.25,-0.5)"/>
                                <g transform="translate(0.0712529,-0.447217) scale(-1,1) translate(0.0712529,0.447217)">
                                    <path id="t-66" d="M0,0L0,1L0.5,1Z" transform="translate(0.0832556,-0.447217) rotate(18) translate(-0.25,-0.5)"/>
                                </g>
                            </g>
                        </g>
                    </g>
                    <g transform="translate(-0.364912,0.25) scale(-1,1) translate(-0.364912,-0.25)">
                        <g id="a-14" transform="translate(0.364912,0.25) translate(-0.364912,-0.25)">
                            <g transform="translate(0.425329,-0.138198) rotate(72) translate(0,0.447217)">
                                <g id="c-34" transform="translate(0,-0.447217) translate(0,0.447217)">
                                    <path id="t-67" d="M0,0L0,1L0.5,1Z" transform="translate(0.0832556,-0.447217) rotate(18) translate(-0.25,-0.5)"/>
                                    <g transform="translate(0.0712529,-0.447217) scale(-1,1) translate(0.0712529,0.447217)">
                                        <path id="t-68" d="M0,0L0,1L0.5,1Z" transform="translate(0.0832556,-0.447217) rotate(18) translate(-0.25,-0.5)"/>
                                    </g>
                                </g>
                            </g>
                            <g transform="translate(0.262868,0.361807) rotate(144) translate(0,0.447217)">
                                <g id="c-35" transform="translate(0,-0.447217) translate(0,0.447217)">
                                    <path id="t-69" d="M0,0L0,1L0.5,1Z" transform="translate(0.0832556,-0.447217) rotate(18) translate(-0.25,-0.5)"/>
                                    <g transform="translate(0.0712529,-0.447217) scale(-1,1) translate(0.0712529,0.447217)">
                                        <path id="t-70" d="M0,0L0,1L0.5,1Z" transform="translate(0.0832556,-0.447217) rotate(18) translate(-0.25,-0.5)"/>
                                    </g>
                                </g>
                            </g>
                        </g>
                    </g>
                </g>
            </g>
            <g transform="translate(-2.90918,5.16664) rotate(72) translate(0,0.0954915)">
                <g id="s-8" transform="translate(0,-0.0954915) translate(0,0.0954915)">
                    <g id="c-36" transform="translate(0,-0.447217) translate(0,0.447217)">
                        <path id="t-71" d="M0,0L0,1L0.5,1Z" transform="translate(0.0832556,-0.447217) rotate(18) translate(-0.25,-0.5)"/>
                        <g transform="translate(0.0712529,-0.447217) scale(-1,1) translate(0.0712529,0.447217)">
                            <path id="t-72" d="M0,0L0,1L0.5,1Z" transform="translate(0.0832556,-0.447217) rotate(18) translate(-0.25,-0.5)"/>
                        </g>
                    </g>
                    <g id="a-15" transform="translate(0.364912,0.25) translate(-0.364912,-0.25)">
                        <g transform="translate(0.425329,-0.138198) rotate(72) translate(0,0.447217)">
                            <g id="c-37" transform="translate(0,-0.447217) translate(0,0.447217)">
                                <path id="t-73" d="M0,0L0,1L0.5,1Z" transform="translate(0.0832556,-0.447217) rotate(18) translate(-0.25,-0.5)"/>
                                <g transform="translate(0.0712529,-0.447217) scale(-1,1) translate(0.0712529,0.447217)">
                                    <path id="t-74" d="M0,0L0,1L0.5,1Z" transform="translate(0.0832556,-0.447217) rotate(18) translate(-0.25,-0.5)"/>
                                </g>
                            </g>
                        </g>
                        <g transform="translate(0.262868,0.361807) rotate(144) translate(0,0.447217)">
                            <g id="c-38" transform="translate(0,-0.447217) translate(0,0.447217)">
                                <path id="t-75" d="M0,0L0,1L0.5,1Z" transform="translate(0.0832556,-0.447217) rotate(18) translate(-0.25,-0.5)"/>
                                <g transform="translate(0.0712529,-0.447217) scale(-1,1) translate(0.0712529,0.447217)">
                                    <path id="t-76" d="M0,0L0,1L0.5,1Z" transform="translate(0.0832556,-0.447217) rotate(18) translate(-0.25,-0.5)"/>
                                </g>
                            </g>
                        </g>
                    </g>
                    <g transform="translate(-0.364912,0.25) scale(-1,1) translate(-0.364912,-0.25)">
                        <g id="a-16" transform="translate(0.364912,0.25) translate(-0.364912,-0.25)">
                            <g transform="translate(0.425329,-0.138198) rotate(72) translate(0,0.447217)">
                                <g id="c-39" transform="translate(0,-0.447217) translate(0,0.447217)">
                                    <path id="t-77" d="M0,0L0,1L0.5,1Z" transform="translate(0.0832556,-0.447217) rotate(18) translate(-0.25,-0.5)"/>
                                    <g transform="translate(0.0712529,-0.447217) scale(-1,1) translate(0.0712529,0.447217)">
                                        <path id="t-78" d="M0,0L0,1L0.5,1Z" transform="translate(0.0832556,-0.447217) rotate(18) translate(-0.25,-0.5)"/>
                                    </g>
                                </g>
                            </g>
                            <g transform="translate(0.262868,0.361807) rotate(144) translate(0,0.447217)">
                                <g id="c-40" transform="translate(0,-0.447217) translate(0,0.447217)">
                                    <path id="t-79" d="M0,0L0,1L0.5,1Z" transform="translate(0.0832556,-0.447217) rotate(18) translate(-0.25,-0.5)"/>
                                    <g transform="translate(0.0712529,-0.447217) scale(-1,1) translate(0.0712529,0.447217)">
                                        <path id="t-80" d="M0,0L0,1L0.5,1Z" transform="translate(0.0832556,-0.447217) rotate(18) translate(-0.25,-0.5)"/>
                                    </g>
                                </g>
                            </g>
                        </g>
                    </g>
                </g>
            </g>
        </g>
        <g transform="translate(4.5,-0.0954915) scale(-1,1) translate(4.5,0.0954915)">
            <g id="l-2" transform="translate(-4.5,-0.0954915) translate(4.5,0.0954915)">
                <g transform="translate(-6,-0.0954915) translate(0,0.0954915)">
                    <g id="s-9" transform="translate(0,-0.0954915) translate(0,0.0954915)">
                        <g id="c-41" transform="translate(0,-0.447217) translate(0,0.447217)">
                            <path id="t-81" d="M0,0L0,1L0.5,1Z" transform="translate(0.0832556,-0.447217) rotate(18) translate(-0.25,-0.5)"/>
                            <g transform="translate(0.0712529,-0.447217) scale(-1,1) translate(0.0712529,0.447217)">
                                <path id="t-82" d="M0,0L0,1L0.5,1Z" transform="translate(0.0832556,-0.447217) rotate(18) translate(-0.25,-0.5)"/>
                            </g>
                        </g>
                        <g id="a-17" transform="translate(0.364912,0.25) translate(-0.364912,-0.25)">
                            <g transform="translate(0.425329,-0.138198) rotate(72) translate(0,0.447217)">
                                <g id="c-42" transform="translate(0,-0.447217) translate(0,0.447217)">
                                    <path id="t-83" d="M0,0L0,1L0.5,1Z" transform="translate(0.0832556,-0.447217) rotate(18) translate(-0.25,-0.5)"/>
                                    <g transform="translate(0.0712529,-0.447217) scale(-1,1) translate(0.0712529,0.447217)">
                                        <path id="t-84" d="M0,0L0,1L0.5,1Z" transform="translate(0.0832556,-0.447217) rotate(18) translate(-0.25,-0.5)"/>
                                    </g>
                                </g>
                            </g>
                            <g transform="translate(0.262868,0.361807) rotate(144) translate(0,0.447217)">
                                <g id="c-43" transform="translate(0,-0.447217) translate(0,0.447217)">
                                    <path id="t-85" d="M0,0L0,1L0.5,1Z" transform="translate(0.0832556,-0.447217) rotate(18) translate(-0.25,-0.5)"/>
                                    <g transform="translate(0.0712529,-0.447217) scale(-1,1) translate(0.0712529,0.447217)">
                                        <path id="t-86" d="M0,0L0,1L0.5,1Z" transform="translate(0.0832556,-0.447217) rotate(18) translate(-0.25,-0.5)"/>
                                    </g>
                                </g>
                            </g>
                        </g>
                        <g transform="translate(-0.364912,0.25) scale(-1,1) translate(-0.364912,-0.25)">
                            <g id="a-18" transform="translate(0.364912,0.25) translate(-0.364912,-0.25)">
                                <g transform="translate(0.425329,-0.138198) rotate(72) translate(0,0.447217)">
                                    <g id="c-44" transform="translate(0,-0.447217) translate(0,0.447217)">
                                        <path id="t-87" d="M0,0L0,1L0.5,1Z" transform="translate(0.0832556,-0.447217) rotate(18) translate(-0.25,-0.5)"/>
                                        <g transform="translate(0.0712529,-0.447217) scale(-1,1) translate(0.0712529,0.447217)">
                                            <path id="t-88" d="M0,0L0,1L0.5,1Z" transform="translate(0.0832556,-0.447217) rotate(18) translate(-0.25,-0.5)"/>
                                        </g>
                                    </g>
                                </g>
                                <g transform="translate(0.262868,0.361807) rotate(144) translate(0,0.447217)">
                                    <g id="c-45" transform="translate(0,-0.447217) translate(0,0.447217)">
                                        <path id="t-89" d="M0,0L0,1L0.5,1Z" transform="translate(0.0832556,-0.447217) rotate(18) translate(-0.25,-0.5)"/>
                                        <g transform="translate(0.0712529,-0.447217) scale(-1,1) translate(0.0712529,0.447217)">
                                            <path id="t-90" d="M0,0L0,1L0.5,1Z" transform="translate(0.0832556,-0.447217) rotate(18) translate(-0.25,-0.5)"/>
                                        </g>
                                    </g>
                                </g>
                            </g>
                        </g>
                    </g>
                </g>
                <g transform="translate(-3.05613,-5.1189) rotate(-144) translate(0,0.0954915)">
                    <g id="s-10" transform="translate(0,-0.0954915) translate(0,0.0954915)">
                        <g id="c-46" transform="translate(0,-0.447217) translate(0,0.447217)">
                            <path id="t-91" d="M0,0L0,1L0.5,1Z" transform="translate(0.0832556,-0.447217) rotate(18) translate(-0.25,-0.5)"/>
                            <g transform="translate(0.0712529,-0.447217) scale(-1,1) translate(0.0712529,0.447217)">
                                <path id="t-92" d="M0,0L0,1L0.5,1Z" transform="translate(0.0832556,-0.447217) rotate(18) translate(-0.25,-0.5)"/>
                            </g>
                        </g>
                        <g id="a-19" transform="translate(0.364912,0.25) translate(-0.364912,-0.25)">
                            <g transform="translate(0.425329,-0.138198) rotate(72) translate(0,0.447217)">
                                <g id="c-47" transform="translate(0,-0.447217) translate(0,0.447217)">
                                    <path id="t-93" d="M0,0L0,1L0.5,1Z" transform="translate(0.0832556,-0.447217) rotate(18) translate(-0.25,-0.5)"/>
                                    <g transform="translate(0.0712529,-0.447217) scale(-1,1) translate(0.0712529,0.447217)">
                                        <path id="t-94" d="M0,0L0,1L0.5,1Z" transform="translate(0.0832556,-0.447217) rotate(18) translate(-0.25,-0.5)"/>
                                    </g>
                                </g>
                            </g>
                            <g transform="translate(0.262868,0.361807) rotate(144) translate(0,0.447217)">
                                <g id="c-48" transform="translate(0,-0.447217) translate(0,0.447217)">
                                    <path id="t-95" d="M0,0L0,1L0.5,1Z" transform="translate(0.0832556,-0.447217) rotate(18) translate(-0.25,-0.5)"/>
                                    <g transform="translate(0.0712529,-0.447217) scale(-1,1) translate(0.0712529,0.447217)">
                                        <path id="t-96" d="M0,0L0,1L0.5,1Z" transform="translate(0.0832556,-0.447217) rotate(18) translate(-0.25,-0.5)"/>
                                    </g>
                                </g>
                            </g>
                        </g>
                        <g transform="translate(-0.364912,0.25) scale(-1,1) translate(-0.364912,-0.25)">
                            <g id="a-20" transform="translate(0.364912,0.25) translate(-0.364912,-0.25)">
                                <g transform="translate(0.425329,-0.138198) rotate(72) translate(0,0.447217)">
                                    <g id="c-49" transform="translate(0,-0.447217) translate(0,0.447217)">
                                        <path id="t-97" d="M0,0L0,1L0.5,1Z" transform="translate(0.0832556,-0.447217) rotate(18) translate(-0.25,-0.5)"/>
                                        <g transform="translate(0.0712529,-0.447217) scale(-1,1) translate(0.0712529,0.447217)">
                                            <path id="t-98" d="M0,0L0,1L0.5,1Z" transform="translate(0.0832556,-0.447217) rotate(18) translate(-0.25,-0.5)"/>
                                        </g>
                                    </g>
                                </g>
                                <g transform="translate(0.262868,0.361807) rotate(144) translate(0,0.447217)">
                                    <g id="c-50" transform="translate(0,-0.447217) translate(0,0.447217)">
                                        <path id="t-99" d="M0,0L0,1L0.5,1Z" transform="translate(0.0832556,-0.447217) rotate(18) translate(-0.25,-0.5)"/>
                                        <g transform="translate(0.0712529,-0.447217) scale(-1,1) translate(0.0712529,0.447217)">
                                            <path id="t-100" d="M0,0L0,1L0.5,1Z" transform="translate(0.0832556,-0.447217) rotate(18) translate(-0.25,-0.5)"/>
                                        </g>
                                    </g>
                                </g>
                            </g>
                        </g>
                    </g>
                </g>
                <g transform="translate(-5.14002,-2.92275) rotate(144) translate(0,0.0954915)">
                    <g id="s-11" transform="translate(0,-0.0954915) translate(0,0.0954915)">
                        <g id="c-51" transform="translate(0,-0.447217) translate(0,0.447217)">
                            <path id="t-101" d="M0,0L0,1L0.5,1Z" transform="translate(0.0832556,-0.447217) rotate(18) translate(-0.25,-0.5)"/>
                            <g transform="translate(0.0712529,-0.447217) scale(-1,1) translate(0.0712529,0.447217)">
                                <path id="t-102" d="M0,0L0,1L0.5,1Z" transform="translate(0.0832556,-0.447217) rotate(18) translate(-0.25,-0.5)"/>
                            </g>
                        </g>
                        <g id="a-21" transform="translate(0.364912,0.25) translate(-0.364912,-0.25)">
                            <g transform="translate(0.425329,-0.138198) rotate(72) translate(0,0.447217)">
                                <g id="c-52" transform="translate(0,-0.447217) translate(0,0.447217)">
                                    <path id="t-103" d="M0,0L0,1L0.5,1Z" transform="translate(0.0832556,-0.447217) rotate(18) translate(-0.25,-0.5)"/>
                                    <g transform="translate(0.0712529,-0.447217) scale(-1,1) translate(0.0712529,0.447217)">
                                        <path id="t-104" d="M0,0L0,1L0.5,1Z" transform="translate(0.0832556,-0.447217) rotate(18) translate(-0.25,-0.5)"/>
                                    </g>
                                </g>
                            </g>
                            <g transform="translate(0.262868,0.361807) rotate(144) translate(0,0.447217)">
                                <g id="c-53" transform="translate(0,-0.447217) translate(0,0.447217)">
                                    <path id="t-105" d="M0,0L0,1L0.5,1Z" transform="translate(0.0832556,-0.447217) rotate(18) translate(-0.25,-0.5)"/>
                                    <g transform="translate(0.0712529,-0.447217) scale(-1,1) translate(0.0712529,0.447217)">
                                        <path id="t-106" d="M0,0L0,1L0.5,1Z" transform="translate(0.0832556,-0.447217) rotate(18) translate(-0.25,-0.5)"/>
                                    </g>
                                </g>
                            </g>
                        </g>
                        <g transform="translate(-0.364912,0.25) scale(-1,1) translate(-0.364912,-0.25)">
                            <g id="a-22" transform="translate(0.364912,0.25) translate(-0.364912,-0.25)">
                                <g transform="translate(0.425329,-0.138198) rotate(72) translate(0,0.447217)">
                                    <g id="c-54" transform="translate(0,-0.447217) translate(0,0.447217)">
                                        <path id="t-107" d="M0,0L0,1L0.5,1Z" transform="translate(0.0832556,-0.447217) rotate(18) translate(-0.25,-0.5)"/>
                                        <g transform="translate(0.0712529,-0.447217) scale(-1,1) translate(0.0712529,0.447217)">
                                            <path id="t-108" d="M0,0L0,1L0.5,1Z" transform="translate(0.0832556,-0.447217) rotate(18) translate(-0.25,-0.5)"/>
                                        </g>
                                    </g>
                                </g>
                                <g transform="translate(0.262868,0.361807) rotate(144) translate(0,0.447217)">
                                    <g id="c-55" transform="translate(0,-0.447217) translate(0,0.447217)">
                                        <path id="t-109" d="M0,0L0,1L0.5,1Z" transform="translate(0.0832556,-0.447217) rotate(18) translate(-0.25,-0.5)"/>
                                        <g transform="translate(0.0712529,-0.447217) scale(-1,1) translate(0.0712529,0.447217)">
                                            <path id="t-110" d="M0,0L0,1L0.5,1Z" transform="translate(0.0832556,-0.447217) rotate(18) translate(-0.25,-0.5)"/>
                                        </g>
                                    </g>
                                </g>
                            </g>
                        </g>
                    </g>
                </g>
                <g transform="translate(-5.10533,2.97049) rotate(72) translate(0,0.0954915)">
                    <g id="s-12" transform="translate(0,-0.0954915) translate(0,0.0954915)">
                        <g id="c-56" transform="translate(0,-0.447217) translate(0,0.447217)">
                            <path id="t-111" d="M0,0L0,1L0.5,1Z" transform="translate(0.0832556,-0.447217) rotate(18) translate(-0.25,-0.5)"/>
                            <g transform="translate(0.0712529,-0.447217) scale(-1,1) translate(0.0712529,0.447217)">
                                <path id="t-112" d="M0,0L0,1L0.5,1Z" transform="translate(0.0832556,-0.447217) rotate(18) translate(-0.25,-0.5)"/>
                            </g>
                        </g>
                        <g id="a-23" transform="translate(0.364912,0.25) translate(-0.364912,-0.25)">
                            <g transform="translate(0.425329,-0.138198) rotate(72) translate(0,0.447217)">
                                <g id="c-57" transform="translate(0,-0.447217) translate(0,0.447217)">
                                    <path id="t-113" d="M0,0L0,1L0.5,1Z" transform="translate(0.0832556,-0.447217) rotate(18) translate(-0.25,-0.5)"/>
                                    <g transform="translate(0.0712529,-0.447217) scale(-1,1) translate(0.0712529,0.447217)">
                                        <path id="t-114" d="M0,0L0,1L0.5,1Z" transform="translate(0.0832556,-0.447217) rotate(18) translate(-0.25,-0.5)"/>
                                    </g>
                                </g>
                            </g>
                            <g transform="translate(0.262868,0.361807) rotate(144) translate(0,0.447217)">
                                <g id="c-58" transform="translate(0,-0.447217) translate(0,0.447217)">
                                    <path id="t-115" d="M0,0L0,1L0.5,1Z" transform="translate(0.0832556,-0.447217) rotate(18) translate(-0.25,-0.5)"/>
                                    <g transform="translate(0.0712529,-0.447217) scale(-1,1) translate(0.0712529,0.447217)">
                                        <path id="t-116" d="M0,0L0,1L0.5,1Z" transform="translate(0.0832556,-0.447217) rotate(18) translate(-0.25,-0.5)"/>
                                    </g>
                                </g>
                            </g>
                        </g>
                        <g transform="translate(-0.364912,0.25) scale(-1,1) translate(-0.364912,-0.25)">
                            <g id="a-24" transform="translate(0.364912,0.25) translate(-0.364912,-0.25)">
                                <g transform="translate(0.425329,-0.138198) rotate(72) translate(0,0.447217)">
                                    <g id="c-59" transform="translate(0,-0.447217) translate(0,0.447217)">
                                        <path id="t-117" d="M0,0L0,1L0.5,1Z" transform="translate(0.0832556,-0.447217) rotate(18) translate(-0.25,-0.5)"/>
                                        <g transform="translate(0.0712529,-0.447217) scale(-1,1) translate(0.0712529,0.447217)">
                                            <path id="t-118" d="M0,0L0,1L0.5,1Z" transform="translate(0.0832556,-0.447217) rotate(18) translate(-0.25,-0.5)"/>
                                        </g>
                                    </g>
                                </g>
                                <g transform="translate(0.262868,0.361807) rotate(144) translate(0,0.447217)">
                                    <g id="c-60" transform="translate(0,-0.447217) translate(0,0.447217)">
                                        <path id="t-119" d="M0,0L0,1L0.5,1Z" transform="translate(0.0832556,-0.447217) rotate(18) translate(-0.25,-0.5)"/>
                                        <g transform="translate(0.0712529,-0.447217) scale(-1,1) translate(0.0712529,0.447217)">
                                            <path id="t-120" d="M0,0L0,1L0.5,1Z" transform="translate(0.0832556,-0.447217) rotate(18) translate(-0.25,-0.5)"/>
                                        </g>
                                    </g>
                                </g>
                            </g>
                        </g>
                    </g>
                </g>
                <g transform="translate(-2.90918,5.16664) rotate(72) translate(0,0.0954915)">
                    <g id="s-13" transform="translate(0,-0.0954915) translate(0,0.0954915)">
                        <g id="c-61" transform="translate(0,-0.447217) translate(0,0.447217)">
                            <path id="t-121" d="M0,0L0,1L0.5,1Z" transform="translate(0.0832556,-0.447217) rotate(18) translate(-0.25,-0.5)"/>
                            <g transform="translate(0.0712529,-0.447217) scale(-1,1) translate(0.0712529,0.447217)">
                                <path id="t-122" d="M0,0L0,1L0.5,1Z" transform="translate(0.0832556,-0.447217) rotate(18) translate(-0.25,-0.5)"/>
                            </g>
                        </g>
                        <g id="a-25" transform="translate(0.364912,0.25) translate(-0.364912,-0.25)">
                            <g transform="translate(0.425329,-0.138198) rotate(72) translate(0,0.447217)">
                                <g id="c-62" transform="translate(0,-0.447217) translate(0,0.447217)">
                                    <path id="t-123" d="M0,0L0,1L0.5,1Z" transform="translate(0.0832556,-0.447217) rotate(18) translate(-0.25,-0.5)"/>
                                    <g transform="translate(0.0712529,-0.447217) scale(-1,1) translate(0.0712529,0.447217)">
                                        <path id="t-124" d="M0,0L0,1L0.5,1Z" transform="translate(0.0832556,-0.447217) rotate(18) translate(-0.25,-0.5)"/>
                                    </g>
                                </g>
                            </g>
                            <g transform="translate(0.262868,0.361807) rotate(144) translate(0,0.447217)">
                                <g id="c-63" transform="translate(0,-0.447217) translate(0,0.447217)">
                                    <path id="t-125" d="M0,0L0,1L0.5,1Z" transform="translate(0.0832556,-0.447217) rotate(18) translate(-0.25,-0.5)"/>
                                    <g transform="translate(0.0712529,-0.447217) scale(-1,1) translate(0.0712529,0.447217)">
                                        <path id="t-126" d="M0,0L0,1L0.5,1Z" transform="translate(0.0832556,-0.447217) rotate(18) translate(-0.25,-0.5)"/>
                                    </g>
                                </g>
                            </g>
                        </g>
                        <g transform="translate(-0.364912,0.25) scale(-1,1) translate(-0.364912,-0.25)">
                            <g id="a-26" transform="translate(0.364912,0.25) translate(-0.364912,-0.25)">
                                <g transform="translate(0.425329,-0.138198) rotate(72) translate(0,0.447217)">
                                    <g id="c-64" transform="translate(0,-0.447217) translate(0,0.447217)">
                                        <path id="t-127" d="M0,0L0,1L0.5,1Z" transform="translate(0.0832556,-0.447217) rotate(18) translate(-0.25,-0.5)"/>
                                        <g transform="translate(0.0712529,-0.447217) scale(-1,1) translate(0.0712529,0.447217)">
                                            <path id="t-128" d="M0,0L0,1L0.5,1Z" transform="translate(0.0832556,-0.447217) rotate(18) translate(-0.25,-0.5)"/>
                                        </g>
                                    </g>
                                </g>
                                <g transform="translate(0.262868,0.361807) rotate(144) translate(0,0.447217)">
                                    <g id="c-65" transform="translate(0,-0.447217) translate(0,0.447217)">
                                        <path id="t-129" d="M0,0L0,1L0.5,1Z" transform="translate(0.0832556,-0.447217) rotate(18) translate(-0.25,-0.5)"/>
                                        <g transform="translate(0.0712529,-0.447217) scale(-1,1) translate(0.0712529,0.447217)">
                                            <path id="t-130" d="M0,0L0,1L0.5,1Z" transform="translate(0.0832556,-0.447217) rotate(18) translate(-0.25,-0.5)"/>
                                        </g>
                                    </g>
                                </g>
                            </g>
                        </g>
                    </g>
                </g>
            </g>
        </g>
    </g>
</svg>
