<?xml version="1.0" encoding="UTF-8" standalone="no"?>
<!-- Created with Keyshape -->
<svg xmlns="http://www.w3.org/2000/svg" id="svg2" viewBox="0 0 1235 650" style="white-space: preserve-spaces;">
    <metadata id="metadata8"/>
    <defs id="defs6"/>
    <g id="g10" transform="translate(438.978,328.983) rotate(180) scale(-1.33333,1.33333) translate(-329.233,-246.738)">
        <path id="path52" d="M827.159,2.98698L-99.091,2.98698L-99.091,495.512L827.159,495.512Z" fill="#ffffff" fill-opacity="1" fill-rule="nonzero" stroke="none" transform="translate(428.325,249.725) translate(-329.234,-246.737)"/>
        <path id="path56" d="M-0.0007,11.7595L258.456,-219.147L-0.0007,-448.16L-0.0007,-462.897L25.9767,-462.897L288.061,-219.147L21.875,24.603L-0.0007,24.603Z" fill="#ffb000" fill-opacity="1" fill-rule="nonzero" stroke="none" transform="translate(95.4427,315.812) translate(-95.442,153.06)"/>
        <path id="path60" d="M22.9986,-0.262616L287.367,-244.182L24.4173,-486.793L208.75,-486.793L402.889,-311.413L928.979,-311.413L928.979,-176.949L402.889,-176.949L206.231,0.706L22.9986,0.706Z" fill="#006c42" fill-opacity="1" fill-rule="nonzero" stroke="none" transform="translate(305.889,315.811) translate(-305.888,176.957)"/>
        <path id="path64" d="M-232.592,0L-49.4641,-162.747L465.163,-157.894L465.163,0Z" fill="#d73626" fill-opacity="1" fill-rule="nonzero" stroke="none" transform="translate(693.669,434.612) translate(-232.582,58.862)"/>
        <path id="path68" d="M0,0L0,160.007L-518.831,160.007L-700.485,0Z" fill="#001982" fill-opacity="1" fill-rule="nonzero" stroke="none" transform="translate(696.053,64.463) translate(232.928,-58.488)"/>
        <path id="path72" d="M111.705,-61.663L-154.657,182.087L-154.657,-305.413Z" fill="#231f20" fill-opacity="1" fill-rule="nonzero" stroke="none" transform="translate(77.329,311.168) translate(77.328,0.2205)"/>
    </g>
</svg>
