<svg xmlns="http://www.w3.org/2000/svg" viewBox="0 0 2376 1169.2"><defs><style>.cls-1{fill:none;stroke:#000;stroke-miterlimit:2.61;stroke-width:9.6px;fill-rule:evenodd;}</style></defs><g id="Layer_2" data-name="Layer 2"><g id="Layer_1-2" data-name="Layer 1"><path class="cls-1" d="M2376,1077H2189.86c-64.47,0-132.59,0-168.73-1.15s-40.27-3.46-45.33-9.67-11-16.33-22.78-42.79-29.21-69.25-37.5-101.46-7.36-53.83,5.3-84.66,37-70.86,50.61-104,16.33-59.36,17.71-81,1.39-38.66-2.76-50.62-12.42-18.86-34.74-12.88-58.66,24.84-86.5,35.43-47.16,12.88-58.9,5.29-15.87-25.08-14.49-43.6,8.28-38.07,18.4-62.12,23.47-52.57,30.6-82.7,8-61.89,1.38-88.35-20.93-47.62-33.59-65.34-23.69-32-28.52-40.26-3.46-10.58,6.9-8.74,29.68,7.82,47.16,31.75,33.13,65.8,42.1,110.66,11.28,92.71,15.65,121.24,10.81,37.73,36.81,25.31,71.55-46.47,94.21-70.05,22.43-36.7,20-55.45a466.48,466.48,0,0,0-14.15-67.76c-7.14-24.61-16.8-49.46-36.12-74.54s-48.32-50.38-85.13-67.63-81.44-26.46-111.58-23-45.78,19.55-60.74,31.75-29.22,20.47-37.5,22.08-10.58-3.45-13.8-21.85a736.64,736.64,0,0,1-8.74-75c-1.38-24.85,0-42.8,6.9-58.9s19.32-30.37,35.66-41.41,36.58-18.87,58.2-17.49,44.64,12,58.9,31.41,19.79,47.74,21.86,70.17.69,39-14.27,54.41-43.48,29.68-68.33,42.1-46,23-59.81,40-20.25,40.49-19.79,72,7.82,71.09,9.43,103.76-2.53,58.44-17,78.45-39.34,34.28-63.5,46.71-47.62,23-59.13,32.89-11,19.1-1.15,24.62,29.22,7.36,75,7.59,118-1.15,171.16-7.59,87.2-17.94,126.54-42.33,84-61.66,116.18-79.37,52-15.88,63.5-1.61,14.73,40.95,6.44,60.27-28.07,31.29-40.95,43-18.86,23.23-28.07,54.29-21.62,81.67-32.78,112.27-21,41.19-44.17,54.07-59.48,28.07-104.11,34.74-97.55,4.83-138.27-2.53-69.25-20.25-89.49-3-32.21,64.65-43.49,93.17-21.85,38.19-33.59,42.57-24.61,3.45-32-1.84-9.21-15-7.83-43.49,6-75.92,11.28-104.22,11.27-37.5,26-40.95,38.2-1.15,51.54,6.67,16.56,21.17,14.26,47.63-10.12,66-8.51,107,12.65,83.28,12.88,114.57-10.35,51.53-26,59.36-36.35,3.22-64.88-15.88-64.88-52.68-87.89-71.09-32.67-21.62-39.11-26.23-9.66-10.58-12.65-19.32-5.75-20.25-17-50.85-31.06-80.29-44.4-124.23a654.76,654.76,0,0,1-23.47-108.59c-3.22-26.46-2.76-41.18,3.46-56.37s18.17-30.83,46.93-38.42,74.31-7.13,97.55-1.15,24.15,17.49,27.6,23.24,9.44,5.75,20,6,25.77.69,31.75,10.12,2.76,27.84-3.68,48.55-16.11,43.71-30.6,57-33.82,17-46,18.41-17.26.46-10.59,26.92,25.08,80.29,37.27,119.86,18.18,64.88,19.56,87.19-1.84,41.65-8.28,54.76-16.11,20-27.84,27.84-25.54,16.56-41.87,21.85a122.17,122.17,0,0,1-52.46,4.83c-17.25-2.3-32.9-8.74-40.49-15.18s-7.13-12.88,0-16.56,20.94-4.6,43.94-10.13,55.22-15.64,79.38-24.84,40.26-17.49,60.27-15.65,44,13.81,57.75,32,17.48,42.56,15.87,59.82-8.51,27.38-21.85,34.74-33.13,12-64.42,10.58-74.08-8.74-104.45-15.64-48.31-13.35-61.66-21.4-22.08-17.71-34.74-29.33a474.52,474.52,0,0,0-43-35c-13.8-9.78-24.85-15.76-37.5-27.15s-26.92-28.18-36-41.41-13-22.89-15.29-54.64-3-85.59-4.15-133.33-2.76-89.38-1-111.69,6.79-25.31,23.35-26.8,44.63-1.5,61-4.95,20.93-10.35,22.08-15.42-1.15-8.28-9.89-8.85-23.93,1.49-44.63,2.53-46.93,1-68.91,0-39.68-3.11-57.51-5.64-35.78-5.52-51-8.74-27.61-6.67-35.09-4.6-10,9.66-9.08,16.45,5.29,12.77,29.9,20.7,69.48,17.83,92.84,25.65,25.19,13.58,26.11,43.14.92,82.94.23,124.58-2.07,71.55-6.9,96.17a234.19,234.19,0,0,1-19.56,57.29c-6.44,13.34-11,20.7-19.1,28.52s-19.55,16.11-32,20-25.77,3.45-35.66,2.3-16.34-3-12.89-12.65,16.8-27.15,13.81-47.63-22.32-43.94-33.82-61.19-15.19-28.3-13.58-36.58,8.51-13.81,20.25-10.36,28.3,15.88,45.09,28.07,33.82,24.16,41.18,36.81,5.06,26-5.52,34.51-29.45,12.19-46.24,10.58-31.52-8.51-46.25-24.15-29.44-40-36.81-58.21-7.36-30.14.23-38.08,22.78-11.84,18.87-39.8S958.22,758.33,947,726.81s-10.81-42.57-2.76-54.53,23.69-24.85,33.82-40.95,14.72-35.43,17.48-58.44,3.68-49.69,5.75-66.26,5.3-23,8.29-33.13,5.75-23.92,5.75-32.66-2.76-12.43-14.27-12.43-31.74,3.68-46.7,4.37-24.62-1.61-39.34-6.9-34.51-13.57-47.16-20.7S849.63,392.06,848.25,381s1.38-27.15,1.84-42.79S848.71,307.4,846,298s-6.44-13.11-16.33,6.68-26,63-36.13,90.18-14.26,38.19-7.36,49.7,24.85,23.46,43.72,35a418,418,0,0,0,67.64,34c29,11.5,67.17,23.46,91.79,27.83s35.66,1.15,43.25-9.66,11.74-29.22,25.77-42.1,38-20.25,79.6-23.93,101-3.68,132.06-.46,33.82,9.67,35.2,31.52,1.38,59.13-1.61,83.74-9,36.59-18.17,41.19-21.63,1.84-57.52.46-95.25-1.38-126.19-2.07-33.48-2.07-34.74-8.86-1.27-19-1.27-43.25,0-60.63.46-82.25,1.38-28.53,13.58-32.9,35.66-6.21,59.58-6.44,48.32,1.15,65.11-.69,26-6.91,30.6-14.27,4.6-17-1.38-33.13-17.94-38.65-29-60.5-21.16-43-31.52-61.89-20.93-35.43-37.5-46.24-39.11-15.88-63-17-49.23,1.61-69.25,3-34.73,1.38-44.17,1.61-13.57.69-18.75-13.23-11.39-42.21-17-63.72-10.7-36.24-13.46-50.5-3.22-28.07,4.37-41.65,23.24-26.91,43.25-34.74,44.4-10.12,64.19-7.59,35,9.89,41.64,18.87,4.83,19.55.23,30.6-12,22.54-14.95,32.9-1.61,19.55.69,30.13,5.52,22.55,6.67,32.67.23,18.41-3.22,26.23-9.43,15.19-24.62,16.57-39.57-3.23-57.28-7.83-28.76-9.2-41.19-6.44-26.22,12.89-44.63,21.17-41.41,14.72-53.37,27.84-12.89,32.89-20.94,55.9S787.51,333.63,776,359.28,756.68,410,753.69,427.61s-1.15,27.72,10.82,38.07,34,20.94,46.93,29.91,16.57,16.34,17.72,23.93-.23,15.41-6.91,39.57S803.62,623.74,792.57,656s-21.16,56.13-27.26,90.18-8.17,78.22-10.81,113.31-5.87,61.08-6.21,85.12,2.18,46.13,3.22,64.42.57,32.79-.81,42.56-3.68,14.84-7.47,13.12-9.09-10.24-12.77-20.59a94.79,94.79,0,0,1-5.41-33.25c.35-10.7,3.11-19.9,13.23-25.42s27.61-7.36,43.48.12,30.14,24.27,44.63,41.64,29.22,35.31,42.45,39.8a20.27,20.27,0,0,0,26.8-15.53c1.84-11-6.21-24.16-18.06-41.53s-27.49-39-36.46-56.82-11.27-31.87-11-52.92,3-49.12,8.39-86.27,13.46-83.4,17.72-116,4.71-51.42-1-64.76S837.44,612,825.59,608s-23.58-4.26-34.28.46S771,622.82,760.48,643.87s-21.74,53.49-33,72-22.55,23.12-35.66,22.2-28.07-7.36-39-11-17.83-4.6-27.26-1.61-21.4,9.89-32,14-19.79,5.52-33.59,7-32.21,3.1-48.08,1-29.22-7.82-44.64-14.26-32.9-13.58-45-19.21-18.76-9.78-26.58-28.53-16.79-52.11-21.28-79.83-4.49-49.81-14.49-62.81-30-16.91-41.3-24.39-13.8-18.52-16.22-29.79-4.72-22.78-6.33-34.28-2.53-23,2-33,14.38-18.52,20.71-28.75,9.08-22.2,11.73-38.19,5.18-36,12.08-54.53,18.17-35.54,30.48-45.32,25.65-12.31,34.05-11.74,11.85,4.26,9.78,7.71-9.66,6.67-17.37,11.39S384,272.89,378.11,283s-9.78,24.16-13,51.65-5.75,68.44-6.78,99.27-.58,51.54,6.67,65.8,21.28,22.09,36.12,28.19,30.48,10.46,43.71,25.19,24,39.8,33.25,59.81,16.79,35,24.27,42.45,14.84,7.48,24.61,3.68,22-11.39,25.54-24.27-1.49-31.06-10.93-52-23.23-44.64-40.83-63.62S461.74,485.93,449,476s-16.91-15.42-17.83-25.77,1.38-25.54,8.28-46.25,18.41-46.93,26.92-69.24,14-40.73,15-55.8-2.76-26.8-13.12-36-27.38-15.88-40.49-22.32S405.37,208,400,197.2s-7-26.23-6.67-43.95,2.64-37.73,10.46-57.4,21.17-39,39.35-51.53S484.29,26,508.21,26.6,557,34.08,569.53,41.67s12.77,15.88,11.16,25.42-5.07,20.37-4.84,30.26S580,116.21,586.67,125s16.1,17.25,18.86,23.81-1.15,11.16-5.63,14.15-9.55,4.37-10.7,9.54,1.61,14.15,1.38,22.78-3.45,16.91-11.05,22.2S560,225,553.08,227.56s-8.75,5.3-7.13,13.58,6.67,22.08,16.9,40.61,25.66,41.75,35.66,63.72,14.61,42.68,16.91,66.38,2.31,50.38,5.07,66.95,8.28,23,17.71,27.14,22.78,6,30.6,11.51,10.12,14.72,17.48,17.94,19.79.46,24.39-5.06,1.38-13.8-4.6-25.08S691.35,479.72,678,468.9s-31.29-18.17-43.25-22.08-18-4.37-22.32,6-7.13,31.52-8.28,48.54-.69,29.91,4.14,38.42,14,12.66,33.82,15.88,50.16,5.52,70.63,6.44,31.06.46,58.21,3,70.86,8,96.17,17.49,32.21,22.77,34.74,40.83.69,40.84-4.61,86.05-14,112.84-16.56,155.18S881.84,924,895,946.29s35.66,49.92,51.77,67.18,25.77,24.15,27.61,32.9-4.14,19.32-13.35,25.07-21.62,6.68-29.22,9-10.35,6-23.92,11.73-38,13.57-65.34,14-57.75-6.44-78-10.81-30.37-6.21-37.73-6-12,2.53-16.34,4.14-8.51,2.53-13.11.46-9.66-7.13-17.26-49.46-17.71-121.94-27.6-180.14-19.56-95-29.91-114.58S601.16,728,583.22,727.5s-42.8.92-60.51,3.68-28.3,6.9-54.3,58.66S401,941,376.73,996.56s-31.4,67.29-91.33,73.16-172.67,5.87-285.4,5.87"/></g></g></svg>