<svg xmlns="http://www.w3.org/2000/svg" viewBox="0 0 1800 2740"><g data-name="Layer 2" transform="translate(898.6,1368.1) rotate(-90) translate(-1372.3,-902.8)"><g data-name="Layer 1"><path class="cls-1" d="M2740.4 1467.6c0 0-875.4-6.3-881 11.5c-5.6 17.9 8.4 38.7 8.4 72.4c0 33.7 5.6 83.2-4.7 95.1c-10.3 11.9 3.8-14.9 17.7-1c14 13.9-25.1 120.9-57.8 123.9c-32.6 3-116.6-26.8-100.7-25.8c15.9 1-19.6 34.7-48.5 28.8c-28.9-6-102.6-78.3-112.8-94.2c-10.3-15.8 2.8-35.7 10.2-45.6c7.5-9.9 0 15.9-7.4 26.8c-7.5 10.9-42.9-38.7-54.1-66.4c-11.2-27.8-9.4-46.6-4.7-61.5c4.7-14.8 8.4 15.9 7.5 24.8c-1 8.9 0-17.8 1.8-28.7c1.9-10.9 15.9 49.5 24.3 62.4c8.4 12.9 69.9 47.6 84.9 47.6c14.9 0-32.7-14.9-58.8-35.7c-26.1-20.8-26.1-39.6-26.1-76.3c0-36.7 1.9-128.8 20.5-155.6c18.7-26.8 62.5-47.6 93.3-56.5c30.7-8.9 32.6-58.5 22.3-91.2c-10.2-32.7-43.8-86.2-73.6-94.1c-29.9-7.9 63.4 42.6-12.2-14.9c-75.5-57.4-165-81.2-165-81.2c0 0 68.1 51.5 91.4 63.4c23.3 11.9 126.8 94.1 143.6 120.9c16.8 26.8-36.3 92.2-41 90.2c-4.7-2-22.4-80.3-12.1-99.1c10.2-18.9 46.6 4.9 55 36.6c8.3 31.8 20.4 40.7 27 39.7c6.5-1-14-8-48.5-3c-34.5 4.9-36.4 27.8-45.7 43.6c-9.3 15.8 36.4-4 36.4-4c0 0-42 15.8-72.8 41.6c-30.8 25.8-39.2 70.4-52.2 68.4c-13.1-2-58.8-38.7-39.2-58.5c19.6-19.8 84.9 16.9 86.7 8.9c1.9-7.9-28.9 17.9-31.7 57.5c-2.8 39.7 14 60.5 8.4 67.4c-5.6 6.9 1.9-47.6 11.2-72.3c9.4-24.8 25.2-46.6 68.1-75.4c42.9-28.7 64.4-29.7 99.8-28.7c35.4 1 18.1 15.1 13.4 24c-4.7 8.9-89 26.6-116 45.4c-27.1 18.8 10.6 15.4 44.2-1.4c33.6-16.9 41.6-21.4 73.3-11.5c31.7 9.9 98.8 102.1 105.4 122.9c6.5 20.8-19.6 11.9-35.5-1c-15.8-12.9-22.4-24.8-32.6-33.7c-10.3-8.9-7.5 16.9-21.5 30.7c-14 13.9-36.3 28.8-36.3 37.7c0 8.9-32.7 8.9-46.7 25.8c-14 16.8 53.2 63.4 46.7 53.5c-6.5-9.9-1.9-78.3 14-98.1c15.8-19.9 63.4-7 96 12.9c32.7 19.8 56 71.3 48.5 84.2c-7.4 12.9 5.6-44.6 24.3-7c18.6 37.7 2.8 68.5-6.6 97.2c-9.3 28.7-18.6 34.7-45.7 32.7c-27-2 35.5-4 47.6 9.9c12.1 13.9-12.1 50.5-48.5 47.6c-36.4-3-29.8-31.7-24.2-50.6c5.6-18.8 43.8-18.8 62.4-15.8c18.7 2.9-41 40.6-100.7 26.7c-59.7-13.9-73.7-86.2-74.6-95.1c-0.9-8.9 7.5 2 12.1 8.9c4.7 6.9 1.9-57.5 17.8-77.3c15.8-19.8 67.1-19.8 98.8-8.9c31.7 10.9 20.5 2.9 19.6-17.9c-0.6-12.5-5.6-24.4-14-33.7c0 0 39.2 29.8 43.8 32.7c4.7 3 5.6-29.7 1-74.3c-4.7-44.6 0-78.3-11.2-102.1c-11.2-23.7-95.2-116.9-86.8-137.7c8.4-20.8 116.6 146.7 116.6 183.3c0 36.7-71.2-2.2-119.7-33c-48.5-30.7-22-27.4-32.3-63.1c-10.3-35.7-49.4-62.4-48.5-73.3c.9-10.9 50.4-18.9 57.8-19.9c7.5-0.9-37.3-58.4-78.3-103c-41-44.6-88.6-77.3-88.6-77.3c-50.4-31.7-146.4-75.2-148.9-87.1c-2.5-11.9 58.5-31.7 121.9-51.5c63.4-19.9 89.5-22.5 135.5-25.1c46-2.7 156.7 6.5 153 2.6c-3.8-4-51 14.5-72.2 34.3c-21.1 19.9 43.6 38.4 63.5 39.7c19.8 1.3 54.7-23.8 46-58.2c-8.8-34.3-27.4 31.8-19.9 63.5c7.4 31.7 26 7.9 28.5 19.8c2.5 11.9 1.3 31.7-3.7 50.2c-4.9 18.5-48.5 54.2-34.8 81.9c13.7 27.8 49.7-5.3 78.3-17.2c28.6-11.8 62.2 2.7 70.9 21.2c8.7 18.5-87-51.6-106.9-99.1c-19.9-47.6-1.2-52.9 1.2-72.7c2.5-19.8 16.2-41 23.7-42.3c7.4-1.3-10 54.2-11.2 88.6c-1.3 34.3 29.8 62.1 106.9 104.3c77.1 42.3 44.8 33.1 43.5 51.6c-1.2 18.5-17.4-43.6-11.2-62.1c6.2-18.6 44.8-11.9 63.4-14.6c18.7-2.6 13.7 27.8 44.8 25.1c31.1-2.6 90.8-15.8 104.4-25.1c13.7-9.2-22.3 47.6-63.4 64.8c-41 17.2-111.9 21.1-118.1 30.4c-6.2 9.2 37.3 17.2 57.2 21.1c19.9 4 19.9-18.5 17.4-30.4c-2.5-11.9-8.7 11.9-5 27.8c3.8 15.9 31.1 14.6 44.8 11.9c13.7-2.7-18.7-31.8-17.4-41c1.2-9.3 9.9 22.4 18.6 30.4c8.7 7.9 58.5 0 93.3-23.8c34.8-23.8 60.9-63.4 58.4-100.4c-2.5-37-23.6-71.4-28.6-83.3c-4.9-11.9 3.8 26.5-9.9 51.6c-13.7 25.1-119.4 38.3-159.2 37c-39.8-1.4-75.8-31.7-99.5-56.9c-23.6-25.1 0-82 36-115c36.1-33 104.5-42.3 151.7-37c47.3 5.3 70.9 47.6 82.1 105.7c11.2 58.2-14.9 38.4-21.1 50.3c-6.2 11.8-14.9 37-67.2 48.8c-52.2 11.9-53.4 1.4-84.5 10.6c-31.1 9.3 41-1.3 47.2-21.1c6.2-19.8-29.8 2.6-51-1.3c-21.1-4 0-0.1 8.7-14.6c8.7-14.5 13.7-19.8 17.4-23.8c3.8-3.9-12.4 0-48.5-15.8c-36-15.9-22.3-103.1 7.5-118.9c29.9-15.9 95.7-26.5 79.6-39.7c-16.2-13.2-92.1-68.6-166.6-76.6c-74.6-8-97 38.3-125.6 70c-28.6 31.7-95.8 7.9-149.2 29c-53.5 21.2 38.5 25.2 103.2 25.2c64.6 0 144.2-93.9 144.2-112.4c0-18.5-19.9-33-60.9-35.6c-41.1-2.7-258.7 33-287.3 50.2c-28.6 17.2-2.4 43.6 18.7 74c21.1 30.4-1.2-35.7-5-60.8c-3.8-25.1 2.4-18.5 11.1-19.8c8.8-1.3 5 13.2 11.2 42.3c6.3 29 21.2 42.3 22.4 55.5c1.2 13.2-19.9 22.4-39.8 30.4c-19.9 8-19.9-5.3-31.1-33c-11.1-27.8-3.7-64.8-18.6-71.4c-14.9-6.6-198.1 74.4-198.1 74.4c-8.2 6.6-14.3-4.3-8.2-23.9c6.2-19.6 0-50-16.3-58.7c-16.4-8.7 6.1 17.4 34.8 26.1c28.7 8.7 40.9-74 73.7-126.2c32.7-52.2 18.4-37 16.4-71.8c-2.1-34.8-22.6 6.5-14.4 28.2c8.2 21.8 38.9-15.2 61.5-47.8c22.5-32.7 34.8-26.1 36.8 0c2.1 26.1-34.8 71.8-30.7 119.7c4.1 47.8 43-69.7 59.4-82.7c16.4-13.1 38.9 19.5 71.7 32.6c32.7 13.1 18.4 74 65.5 100.1c47.1 26.1 22.5-78.3 20.5-102.3c-2.1-23.9-18.5 8.7-55.3 10.9c-36.9 2.2-129-28.3-153.6-52.2c-24.6-23.9 96.2-139.3 100.3-169.7c4.1-30.5-22.5-32.7-22.5-78.4c0-45.7 39.6-82 90.8-84.1c51.2-2.2 111.9-29 60.7 3.6c-51.2 32.7-43 134.9-43 171.9c0 37-10.2-23.9-10.2-65.3c0-21.4 5-43.4 15.4-65.8c9.7-20.7 24.2-41.7 43.9-62.6c41-43.5 71.7-54.4 104.5-52.2c32.7 2.2 51.1 19.5 57.3 26.1c6.1 6.5 30.7 6.5 40.9 74c10.3 67.5-49.1 126.2-65.5 148c-16.4 21.8-24.6-4.4-20.5-26.1c4.1-21.8-12.2 19.6-49.1 37c-36.9 17.4-77.9 10.9-86 0c-8.1-10.9-6.1-80.5-2-91.4c4.1-10.9 22.4-23.9 96.1-32.6c73.8-8.7 26.7-24 26.7-24c0 0 6.1 76.2 4.1 106.6c-2.1 30.5-10.3 28.4-32.8 74c-22.5 45.7 0 34.9 10.2 19.6c10.3-15.2 38.9-30.5 79.9-74c41-43.5 41-117.5 41-117.5c0 0 1.4 20.1 11.7 50.6c10.2 30.4-10.7 69.7-29.2 93.6c-18.4 24-27.6 32.1-31.7 19c-4-13 21.5-23.3 11.3 2.8c-10.3 26.1-124.5 101.2-155.2 96.9c-30.7-4.4 111.2-97.5 125.5-86.6c14.4 10.8-36.1 15-77.1 32.4c-40.9 17.4-25.5 81.2-109.2 95.9c-60.5 10.7-116.7-36.9-139.2-54.3c-9.8-7.6-10.3-14.7-6.5-21.7c5-9.3 17.6-18.5 27-28.4c16.3-17.4 62.4-162.9 23.4-193.4c-38.9-30.4-170.9 167.3-199.5 221.7c-28.7 54.4-103 221.9-114.4 248.2c-11.4 26.2-34.6 15-34.6 15c-6.5-1.4-59.1-99.3-81.5-158c-22.4-58.7-50-198.6-46.1-262.8c4-64.3 19.8-60.1 23.7-92.3c4-32.1-7.9 16.8 72.4 58.7c80.2 42 96-22.4 96-22.4c0 0 31.5 65.8 27.6 89.5c-4 23.8-60.5-22.4-72.4-40.5c-11.8-18.2-43.4 34.9-60.5 41.9c-17.1 7-19.7 81.1-44.7 83.9c-25 2.8-17.1-97.9-10.5-95.1c5 2.1 62.6-7.8 105.8-21.8c14-4.5 26.3-9.4 35-14.5c35.5-21 21-32.2 26.3-42c5.3-9.7 1.3 7-3.9 16.8c-5.3 9.8-34.2-32.1-34.2-60.1c0-27.9-2.7-67.1 5.2-82.5c7.9-15.3 11.9 26.5 0 42c-11.8 15.4-31.6-26.6-31.6-12.6c0 14 27.7 39.2 17.1 88.1c-10.5 48.9-96 47.5-117 62.9c-18 13.1 23.4 3.8 63.8-8.8c6.9-2.1 13.8-4.4 20.4-6.6c44.7-15.4 74.9-54.5 97.3-113.3c22.4-58.7 13.1-104.8 9.2-139.7c-3.9-35 5.3 62.9 4 110.4c-1.4 47.5 27.6 96.5 9.2 99.3c-18.5 2.8-2.7-9.8-5.3-30.8c-2.6-21-9.2 15.4-13.2-2.8c-3.9-18.2 18.5-41.9 18.5-41.9c0 0 13.1 16.8 26.3 9.8c1.9-1.1 3.7-3.8 5.3-7.8c9.5-22.9 13.4-88.1 7.8-116.7c-6.6-33.5-44.7-156.5-65.8-173.3c-21.1-16.8-38.1 1.4-42.1 5.6c-3.9 4.2 30.3 14 26.4 58.7c-4 44.7 0 53.1 0 50.3c0-2.8 7.8-23.7 11.8 0c3.9 23.8-21.1 117.5-60.5 131.4c-39.5 14-90.8-62.9-103.9-104.8c-13.2-42-15.8-110.4 19.7-138.4c35.5-28 75-32.2 115.8-1.4c40.7 30.7 35.5 64.3 35.5 81c0 16.8-6.6 8.4-29 4.2c-22.3-4.2-39.4 46.2-81.5 54.6c-42.1 8.3-40.7-19.6-56.6-40.6c-15.8-20.9-15.8 36.4-11.8 60.1c3.9 23.8-7.9-82.4-14.5-65.7c-6.6 16.8 6.5 124.5 21 160.8c14.5 36.3 51.3-5.6 51.3-5.6c0 0-15.8-7-48.7-46.1c-32.9-39.2-30.2-93.7-30.2-93.7c0 0-34.3 19.6-61.9 51.7c-27.5 32.2-39.4 68.5-46 100.7c-6.5 32.1 11.9 41.9 9.3 50.3c-2.7 8.4-5.3 39.2 6.5 153.8c11.9 114.6 80.3 229.3 86.9 272.6c6.5 43.3-86.9-118.9-97.4-186c-10.5-67.1-40.8-250.2-11.9-278.2c29-27.9 89.5 42 111.9 114.7c22.3 72.7 1.3 62.8 6.5 146.7c5.3 84 55.3 198.5 67.1 193c11.9-5.6-56.5 16.7-64.4 36.3c-7.9 19.6 10.5 28 23.6 51.7c13.2 23.8 54-39.1 56.6-47.5c2.6-8.4 26.3 51.7 43.4 79.7c17.1 27.9 50 28 59.2 46.1c9.2 18.2-19.7 16.8-19.7 16.8c0 0 14.6 39.2 26.4 68.5c11.8 29.4-25-25.1-29-34.9c-3.9-9.8 7.9 16.7 14.5 54.5c6.6 37.7-28.9-32.1-34.2-48.9c-5.3-16.8 10.5 16.7 14.5 51.7c3.9 34.9-32.9-33.6-38.2-54.5c-5.2-21 7.9 27.9 5.3 54.5c-2.6 26.6-46-81-56.6-118.8c-10.5-37.8-131.6-96.5-175-153.8c-43.4-57.3-132.8-113.2-152.6-121.6c-19.7-8.4 21.1 7 21.1-1.4c0-8.4 10.5-8.4 9.2-16.8c-1.3-8.3 0 .1 1.3 8.4c1.3 8.4 56.6 25.2 71 12.6c14.5-12.6-7.9-30.7-22.3-44.7c-14.5-14-57.9 5.6-36.9 4.2c21.1-1.5 51.3-68.5 51.3-103.5c0-34.9-52.6-155.2-57.8-176.1c-5.3-21 39.4 26.5 44.7 43.3c5.2 16.8 1.3 37.8-2.7 54.5c-3.9 16.8 2.7-15.3 6.6-29.3c4-14 5.3 5.6 10.5 39.1c5.3 33.6-9.2 64.3-9.2 48.9c0-15.3-26.3-57.3-17.1-46.1c9.2 11.2 4 68.5-2.6 102.1c-6.6 33.5-56.6 44.7-67.1 60.1c-10.5 15.4 22.4-4.2 39.5-26.6c17.1-22.3-2.7-43.3-10.5-68.5c-7.9-25.1-15.8-57.3-17.1-75.5c-1.4-18.1 6.5 22.4-5.3 57.3c-11.8 35-182.9-9.7-201.3-47.5c-18.4-37.8-10.5-124.4 9.2-165c19.8-40.5 56.6-30.7 56.6-30.7c0 0 51.3-14 90.8 7c39.4 20.9 90.7 118.8 96 149.5c5.2 30.8-39.5 74.1-30.3 51.8c9.2-22.4-3.9-40.6-56.6-67.1c-52.6-26.6-69.7-8.4-63.1-9.8c6.6-1.4 2.6 72.7-11.9 117.4c-14.4 44.7 44.8 43.3 44.8 43.3c0 0-29 9.8-82.9-19.5c-53.9-29.4-40.8-63-40.8-63c0 0-23.7 40.5-9.2 99.3c14.5 58.7 89.4 116 103.9 127.2c14.5 11.1 46.1-35 61.8-56c15.8-20.9-44.7-61.5-44.7-61.5c0 0 53.9 43.4 57.9 62.9c3.9 19.6-34.2 33.6-53.9 61.6c-19.7 27.9 56.6 37.7 125 83.8c68.4 46.2 230.8 188.5 230.8 188.5c15.9 10.6 49.8 41.3 47.8 54c-2 12.6-113.5 40.2-165.3 66.6c-51.8 26.5-104.6 31.8-159.3 36c-54.7 4.3-1-25.4 8 5.3c9 30.7-118.5 88.9-145.4 87.8c-26.8-1 14-44.4 31.9-46.5c17.9-2.2-44.8 47.6-74.7 46.5c-29.8-1-68.7-34.9-73.7-47.6c-4.9-12.7 62.8-10.6 72.7-11.6c10-1.1-22.9 10.5-73.7 0c-50.7-10.6-113.5-33.9-138.4-57.2c-24.8-23.3-71.6-43.4-101.5-64.5c-29.9-21.1-65.7-78.3-78.7-110c-12.9-31.8-14.9-76.2-10.9-100.5c4-24.4 27.9-54 60.7-64.6c32.9-10.5 68.7 0 92.6 8.5c23.9 8.4-7.9 33.8-18.9 56.1c-11 22.2-23-7.4-8-25.4c15-18 63.7-30.7 63.7-30.7c0 0 95.6 16.9 126.5 28.6c30.9 11.6 79.7 66.7 79.7 112.2c0 45.5-21.9 60.3-52.8 68.8c-30.8 8.4-117.5 1-152.3-18c-34.8-19.1-43.8-69.9-41.8-100.5c2-30.7 13.9-35 13.9-35c0 0 9-48.7 66.7-54c57.8-5.2 102.6 16 107.6 32.8c4.9 16.9-16 4.2-15 19c1 14.9 46.8 31.8 52.8 75.2c6 43.4-48.8 82.5-57.8 80.4c-8.9-2.1-3.9-13.8-26.8-14.8c-22.9-1.1 7.9 23.2 13.9 28.5c6 5.3-35.8 0-71.7-15.8c-35.8-15.9-82.6-65.6-86.6-76.2c-4-10.6-11.9 15.9-4 50.8c7.9 34.9 75.6 68.9 151.2 63.6c75.6-5.3 70.7-31.8 82.6-39.2c12-7.4-37.8 12.7-31.8 16.9c5.9 4.3 59.6 28.6 74.6 27.6c15-1.1 7-17 7-26.5c0-9.5 39.9 20.1 44.9-14.8c-2.1-34.5-50.4-63.6-55.4-84.3c-13.9-20.1 19.5 6 42.4 32.4c23 26.5 48 79.6 57 100.8c8.9 21.2 57.1 11.9 80.4-0.2c33.8-3.3-139.4-5.4-183.2 19c-43.8 24.3-17.9 82.5 8 106.8c25.9 24.4 170.2-20.1 215.1-26.4c44.8-6.4 24.9-3.2 33.8-24.4c9-21.1 0-46.5-3-70.9c-3-24.3 5 4.2 18.9 19c13.9 14.9 2-16.9-5-45.4c-6.9-28.6-17.9-8.5-32.8-2.2c-14.9 6.4-5 22.3 2 59.3c7 37 0 47.6 5 62.4c5 14.8 26.9 0 39.8-5.3c12.9-5.3 17.9-23.3 15.9-51.8c-2-28.6-13.9-59.3-13.9-59.3c0 0 9 6.4 23.9 6.4c14.9 0 134.4-34.9 134.4-34.9c0 0 6 7.3 30.9 14.8c24.9 7.4 46.8 8.4 48.8 22.2c1.9 13.7-15 13.8-26.9 38.1c-11.9 24.3-9 186.9-9 186.9c-4.1 42.1 0 56.6 13.6 71.1c13.7 14.5-4.1-10.2-35.5 11.6c-31.3 21.7-69.6 136.4-87.3 175.5c-17.8 39.2-26 8.7-60.1-27.6c-34.1-36.2-87.4-13-87.4-13c0 0-16.3 10.2-38.2-5.8c-21.8-15.9-94.2 13.1-133.8 62.4c-39.5 49.3-31.4 66.7-38.2 87c-6.8 20.3-2.7-29-2.7-39.2c0-10.1-36.9-5.8-46.4 18.9c-9.6 24.7 50.5-11.6 50.5-11.6c0 0 13.6-46.5 13.6-50.8c0-4.4-27.3-4.4-38.2 4.3c-10.9 8.8-30 71.2-28.7 119c1.4 47.9 32.8 53.7 66.9 68.2c34.1 14.5 31.4-14.5 32.8-47.9c1.4-33.3 41-85.5 56-107.3c15-21.8 81.9-79.8 120.1-72.5c38.2 7.2 50.5 59.5 51.9 104.4c1.4 45-8.2 62.4-15 71.1c-6.8 8.7-12.3-42.1-15-29c-2.8 13.1-6.9 50.8 6.8 75.4c13.6 24.7 47.8 2.9 60.1 4.4c12.3 1.4-16.4 20.3-31.4 43.5c-15.1 23.2-94.2 61-144.7 55.1c-50.5-5.8-90.1-59.4-97-92.8c-6.8-33.4-1.3-75.5 13.7-119c15-43.5 35.5-58.1 40.9-56.7c5.5 1.5 6.9 37.7 6.9 47.9c0 10.2 28.6-44.9 66.9-58c38.2-13 55.9 0 75 5.8c19.2 5.8 20.5 34.8 28.7 76.9c8.2 42.1-6.8 89.9-6.8 89.9c0 0 71-23.2 91.4-52.2c20.5-29-1.3-69.6-9.5-95.7c-18.4-35.3-4.3 68.1 32.7 89.9c27.4 13.1 86-152.3 86-179.9c0-27.5-24.5-49.3-46.4-65.2c-21.8-16 13.7-52.2 21.9-84.2c8.2-31.9 23.2-200.2 23.2-214.7c0-14.4-4.1-17.4-5.5-30.4c-1.3-13.1 20.5-37.7 20.5-37.7c0 0-16.4 23.2-12.3 39.1c4.1 16 24.6-17.4 28.7-21.7c4.1-4.4-10.9 17.4-16.4 43.5c-5.5 26.1 32.8-31.9 32.8-31.9c0 0-15.1 29-11 39.1c4.1 10.2 30.1-39.1 35.5-46.4c5.5-7.2-10.9 33.4-12.3 62.4c-1.3 29 11 175.5 5.5 206c-5.5 30.5-39.6 110.3-39.6 129.1c0 18.8 4.1-10.1-2.7-39.2c-6.8-29-60.1-39.1-76.5-30.4c-16.3 8.7-66.8 108.8-73.7 107.3c-6.8-1.4-28.6-30.5-54.6-37.7c-25.9-7.3-9.5 2.9 9.6 0c19.1-2.9-2.7-66.7-27.3-101.5c-24.6-34.9-28.7 72.5-28.7 92.8c0 20.3-54.6-18.9-111.9-17.4c-57.4 1.4-87.4 47.9-110.6 71.1c-23.2 23.2 23.2-14.5 28.7-26.1c5.4-11.6-43.7-69.7-75.1-66.8c-31.4 2.9 21 103.2 21 103.2h-813.8" stroke="#332f2f" stroke-width="8.4px" stroke-linecap="round" stroke-linejoin="round" fill="none"/></g></g></svg>