<svg xmlns="http://www.w3.org/2000/svg" viewBox="0 0 2384.3 1300"><g data-name="Layer 2"><g data-name="Layer 1"><path class="cls-1" d="M17.2 0c4.4 .5-4.4 1191.6 0 1192c17.1 1.8 34.4 2.6 52.3-1.2c22.5-4.7 46-16.6 83.4-16.6c37.5 0 89 11.9 122.6 14.4c33.5 2.4 49-4.6 64.5-26c15.5-21.5 30.9-57.3 32-84.3c1.2-27-12.1-45.2-36.7-64.7c-24.7-19.5-60.9-40.5-73.4-50.3c-12.4-9.8-1.1-8.5 22.4-2.2c23.5 6.3 59.2 17.5 79.1 32.8c19.8 15.2 23.8 34.4 23.5 61.2c-0.4 26.8-5 61.2-5.7 73.5c-0.6 12.2 2.7 2.3 13.3-26.8c10.6-29.1 28.4-77.5 35.1-120.2c6.6-42.7 2-79.8 3-98.3c1-18.5 7.6-18.5 20.8-22.2c13.2-3.6 33.1-10.9 34.4-23.8c1.4-12.9-15.9-31.4-21.5-40.7c-5.6-9.3 .4-9.3 14-9.7c13.7-0.3 35.2-1.1 42.8 14.3c7.6 15.4 1.4 46.9-10 93.1c-11.4 46.3-27.9 107.2-53.8 160.8c-25.8 53.6-60.9 100-88 128.4c-27.1 28.5-46.3 39.1-76.8 34.1c-30.4-4.9-72.1-25.5-111.2-39.7c-39.1-14.2-75.5-22.2-79.5-44c-3.9-21.8 24.5-57.6 48.7-91.7c24.2-34.1 44-66.5 55.9-102.6c12-36.1 15.9-75.8 11-132.7c-5-57-18.9-131.1-26.5-197.6c-7.6-66.6-8.9-125.5 9.2-188.7c18.3-63.3 56-130.8 79.2-172.8c23.1-42 31.7-58.6 45.6-54.6c14 3.9 33.1 28.4 50.4 37.7c17.2 9.3 32.4 3.3 40.3-3c8-6.3 8.6-12.9-3.4-15.7c-12.1-2.8-36.9-1.8-52.7-8.7c-15.7-7-22.3-21.9-15.5-41.6c6.8-19.7 27-44.2 39-61.8c12.1-17.5 16-28.1 19.5-25.4c3.5 2.6 6.5 18.5 11.1 29.6c4.6 11.1 10.9 17.4 17.2 12.2c6.3-5.1 12.6-21.6 14.3-34.1c1.6-12.4-1.4-20.6-5.7-14.7c-4.3 6-9.9 26.2-7.1 38.7c2.8 12.6 14.1 17.6 23 11.5c8.9-6.2 15.6-23.4 16.4-33.1c.8-9.8-4.1-12.1-7.6-3.8c-3.5 8.3-5.5 27.1-2.8 37.1c2.6 9.9 9.9 10.9 16.5 5c6.6-5.9 12.6-18.9 15.9-27.7c3.3-8.7 4-13.4 1-11.5c-3 1.8-9.6 10-12.6 22.1c-2.9 12.1-2.3 28 5.5 35c7.8 6.9 22.7 5 29.1-0.5c6.5-5.5 4.5-14.5-1.5-20.5c-5.9-6-15.8-8.9-20.1-5.3c-4.3 3.6-3 13.9 .8 23.8c3.8 10 10.1 19.6 7.6 24.7c-2.5 5.1-13.7 5.8-26.3 5c-12.6-0.8-26.5-3.2-38.4 .3c-11.9 3.5-21.9 12.8-33.6 35.4c-11.8 22.7-25.3 58.8-42.9 115.9c-17.5 57.1-39 135.2-48.5 185.8c-9.4 50.7-6.8 73.9 1.3 86.9c8.2 13.1 21.7 16.1 46.6 36.1c24.8 20 60.9 57.1 93 89.4c32.1 32.3 60.2 59.7 80.2 67c20 7.2 32-5.6 46.7-25c14.7-19.4 32.3-45.2 41-71.2c8.7-26 8.8-52.1 6-85.4c-2.8-33.2-8.4-73.6-13.7-98.6c-5.3-25-10.3-34.6-24-44.4c-13.8-9.7-36.3-19.7-64.9-19.2c-28.6 .5-63.4 11.4-84.4 28.7c-21 17.2-28.3 40.7-27 64.2c1.3 23.5 11.2 47 18.7 66.8c7.4 19.9 12.4 36.1 8.8 44.6c-3.7 8.4-15.9 9.1-26.1-1.7c-10.1-10.8-17.9-32.9-16.2-43.9c1.8-10.9 13.4-10.5 23.7-10.7c10.3-0.2 19.2-0.8 23.3-9.4c4.2-8.7 3.5-25.2 7.1-40.3c3.7-15 11.6-28.6 41.1-29.1c29.5-0.5 80.4 12.1 98.5 12.6c18 .5 3.1-11.1-8.3-13.1c-11.4-2-19.4 5.6-20.4 20.9c-1 15.2 5 38 11 56.9c5.9 18.9 11.9 33.8 7.7 41.5c-4.1 7.8-18.3 8.5-25.3 12c-6.9 3.4-6.6 9.7-5.6 17.7c1 7.9 2.6 17.5-3 18.5c-5.7 1-18.5-6.6-29.5-12.2c-10.9-5.7-19.8-9.3-15-1.2c4.8 8.1 23.3 28 34.1 39.6c10.7 11.5 13.8 14.9 14.6 35.7c.8 20.9-0.5 59.3 10.8 100.7c11.2 41.4 35 85.7 50.3 119.2c15.2 33.4 21.8 55.9 15.5 107.2c-6.3 51.3-25.5 131.4-33.4 162.2c-7.9 30.8-4.6 12.2-6.6-36.8c-2-49-9.3-128.4-17.2-187.3c-8-58.9-16.6-97.3-22.2-89c-5.6 8.3-8.3 63.2-5.3 127.8c3 64.5 11.6 138.7 12.2 179c.7 40.4-6.6 47-36 43c-29.5-4-81.1-18.5-136.4-23.1c-55.3-4.7-114.2 .6-156.3 5.6c-42 4.9-67.2 9.6-54.2 13.9c12.9 4.3 63.8 8.3 125.4 12.6c61.6 4.3 133.7 8.9 188 9.6c54.3 .6 90.7-2.7 110.9-9.3c20.2-6.6 24.2-16.6 38.4-50.3c14.2-33.8 38.7-91.4 52-129.1c13.3-37.8 15.2-55.6 31.4-52c16.3 3.6 46.7 28.8 64.9 44c18.2 15.2 24.2 20.5 10.3 17.5c-13.9-3-47.7-14.2-68.2-24.5c-20.5-10.2-27.8-19.5-24.2-37.7c3.7-18.2 18.2-45.3 24.9-88.4c6.6-43 5.3-101.9 2.6-152.6c-2.6-50.6-6.6-93-4.3-159.5c2.3-66.6 10.9-157.2 16.2-214.5c5.3-57.2 7.3-81.1 17.2-90.3c9.9-9.3 27.8-4 44-2.4c16.2 1.7 30.8-0.3 33.4-12.5c2.7-12.3-6.6-34.8-6.2-57.3c.3-22.5 10.3-45 23.2-66.2c12.8-21.2 28.8-41 32.4-63.6c3.6-22.5-5-47.6-12.9-56.6c-7.9-8.9-15.2-1.6-18.6 14.9c-3.3 16.6-2.6 42.4-3.6 46.7c-1 4.3-3.6-12.9-9.6-27.8c-5.9-14.9-15.2-27.5-20.5-20.5c-5.3 6.9-6.6 33.4-4 42.4c2.6 8.9 9.3 .3 8.9-13.6c-0.3-13.9-7.6-33.1-19.8-32.1c-12.3 1-29.5 22.1-30.2 40c-0.6 17.9 15.3 32.5 19.2 19.9c4-12.6-4-52.3-13.2-64.2c-9.2-12-19.9 4-22.2 31.7c-2.3 27.8 3.7 67.6 8.3 104c4.6 36.4 7.9 69.5 17.5 85.4c9.6 15.9 25.5 14.5 37.8 10.9c12.2-3.6 20.8-9.6 25.1-2c4.3 7.6 4.3 28.8 4.3 55.6c0 26.8 0 59.3-6.2 95c-6.3 35.8-18.9 74.8-24.5 126.8c-5.7 51.9-4.3 116.9 9.9 154.6c14.2 37.7 41.4 48.3 58.6 67.5c17.2 19.2 24.5 47 29.8 79.1c5.7 35.4 8.7 71.1 8.9 106.9c.4 38.4-2.3 78.8-8.6 124.2c-6.3 45.3-16.2 95.6-23.2 116.8c-6.9 21.2-10.9 13.3-37.4 0c-26.4-13.2-75.4-31.8-114.2-32.7c-38.7-1-67.2 15.5-51 29.4c16.2 13.9 77.2 25.2 143.7 35.4c66.5 10.3 138.7 19.6 180.4 17.9c41.7-1.7 53-14.2 63.9-38.1c10.9-23.8 21.5-58.9 25.2-93.6c3.6-34.8 .3-69.2-14-105.6c-14.2-36.4-39.3-74.8-54.9-102.6c-15.5-27.9-21.5-45-29.6-57.3c-8.1-12.3-18.4-19.5-30.5-20.7c-12.1-1.2-26 3.8-41.2-1.7c-15.2-5.4-31.8-21.3-40.7-29.6c-8.9-8.2-10.3-8.9-19.7 2.5c-9.4 11.4-27 34.9-27.3 49.3c-0.3 14.4 16.5 19.7 30.6 24.7c14.1 4.9 25.3 9.6 25.3 21.3c0 11.8-11.2 30.7-27.4 45c-16.3 14.4-37.4 24.4-36.5 31.3c1 7 24.2 10.9 37.8 24.5c13.6 13.6 17.5 36.8 20.5 51.8c3 15.1 5 22 9.6 5.3c4.6-16.7 11.9-57.1 15.4-103.4c3.5-46.4 3.1-98.7 2-131.9c-1.2-33.3-3.2-47.5-16.9-65.2c-13.7-17.8-39.2-38.9-53.3-61.9c-14.1-23-16.7-47.9-11.2-75c5.4-27.2 19-56.6 38.4-73.9c19.4-17.2 44.5-22.1 57.7-17.8c13.3 4.3 14.6 17.8 17 36.7c2.5 18.9 6.1 43 8.8 59.3c2.6 16.2 4.3 24.5-2.5 27.6c-6.8 3.2-22 1.2-29.6 3c-7.6 1.9-7.6 7.5-7 22.7c.6 15.2 2 40 7.1 59.1c5.1 19.1 14.1 32.2 29.1 28c15.1-4.3 36.3-26.2 45.5-54.5c9.3-28.3 6.7-63-0.8-87.2c-7.4-24.2-19.7-37.7-30-52.9c-10.3-15.2-18.6-31.9-46.1-30.3c-27.5 1.7-74 21.7-79.7 16.5c-5.7-5.2 29.3-35.6 65.9-46c36.6-10.5 74.7-0.9 102.8 21.3c28.2 22.1 46.6 56.7 50.5 93.1c4 36.5-6.4 74.6-12.7 105c-6.4 30.3-8.7 52.8-1 70.5c7.7 17.7 25.1 30.7 27.5 36.6c2.3 6-10.6 5-25.7-0.2c-15.1-5.1-32.3-14.4-45-23.5c-12.7-9.1-21-18-15.7-8.4c5.3 9.6 24.1 37.7 44 56.9c19.8 19.2 40.7 29.5 55 46.9c14.3 17.4 21.8 41.8 23.2 62.7c1.3 20.9-3.7 38.1-0.9 71.3c2.8 33.3 13.4 82.6 26.7 122.5c13.2 39.9 29.1 70.3 44 83.6c14.8 13.2 28.8 9.3 57.2-13.3c28.5-22.5 71.5-63.5 86.8-121.1c15.2-57.6 2.6-131.7 7-175.8c4.3-44 25.5-57.9 50.9-80.1c25.4-22.2 55-52.6 71.3-82.6c16.3-29.9 19.3-59.4-0.8-90.5c-20-31.1-63-63.9-89-82.9c-26-19-34.9-24.3-36.2-7.5c-1.4 16.9 5 56 7.6 82.1c2.6 26.2 1.6 39.4 3.3 44.9c1.6 5.4 6 3.1 10.2 .3c4.3-2.8 8.6-6.1 11-1.3c2.3 4.8 2.6 17.7 3.3 24.8c.6 7.1 1.6 8.5 8 2.8c6.3-5.6 17.8-18.2 25.8-28.1c7.9-9.9 12.2-17.2 12.1-10.1c-0.2 7.1-4.8 28.6-11.6 43.2c-6.8 14.6-15.7 22.2-18.6 27.8c-2.8 5.6 .5 9.3 4.5 17.2c4 7.9 8.6 20.2 8.3 28c-0.3 7.8-5.6 11.1-19.2 8.3c-13.6-2.8-35.4-11.8-50-30.3c-14.6-18.5-21.9-46.7-25.7-77.5c-3.8-30.8-4.1-64.2-4.1-85c0-20.9 .3-29.2-5.6-18.6c-6 10.6-18.2 40-22.2 67.7c-4 27.7 .3 53.5 13.7 82.6c13.4 29.1 35.9 61.6 35.6 94c-0.3 32.4-23.5 64.9-33.9 79.6c-10.4 14.8-8.1 11.8-8.8-5.4c-0.7-17.2-4.5-48.7-15.5-87.3c-11-38.6-29.6-84.2-40-128.6c-10.4-44.3-12.7-87.4-0.8-113.7c11.9-26.3 38-35.8 53.4-41.5c15.4-5.6 20-7.3 24.4-14.4c4.3-7.1 8.2-19.7 26.6-23.9c18.4-4.1 51.2 .2 76.5 13.3c25.3 13.1 43.2 34.9 58.1 58.9c14.9 24 26.8 50.1 30.6 73.2c3.8 23-0.5 42.8-1.8 38.7c-1.4-4.2 .3-32.3 3.1-75.3c2.8-43.1 6.8-101 9.4-132.3c2.7-31.2 4-35.9 10.3-41.3c6.3-5.5 17.5-11.8 39.7-19.9c22.2-8.1 55.3-18 66-24c10.7-6-0.8-8-20.3-4.8c-19.6 3.1-47 11.4-61.4 13.7c-14.4 2.3-15.8-1.3-13.8-26.3c2-25 7.3-71.3 15.1-100.1c7.7-28.8 18-40.1 22.5-57.1c4.5-17 3.1-39.9-6.3-54.6c-9.4-14.8-27-21.4-31.3-38.1c-4.3-16.7 4.6-43.5 13.1-60.1c8.4-16.5 16.4-22.8 22-14.5c5.6 8.2 8.9 31.1 6.3 44.3c-2.7 13.3-11.3 16.9-15.1 11.9c-3.8-4.9-2.8-18.5 3.5-27.4c6.3-9 17.8-13.3 26.6-10.6c8.8 2.6 14.8 12.2 13.1 21.5c-1.7 9.3-10.9 18.2-12.4 16.5c-1.5-1.6 4.8-13.9 12.1-20.2c7.2-6.2 15.5-6.6 21.2-2c5.6 4.7 8.6 14.3 3.4 22.2c-5.1 8-18.3 14.3-20.3 11.4c-2-2.8 7.3-14.7 17.3-16.3c10.1-1.7 21 7 17.6 18.7c-3.5 11.7-21.4 26.6-31.3 50.4c-9.9 23.9-11.9 56.6-2.6 122.2c9.2 65.5 29.8 163.8 41.3 253.2c11.6 89.4 14.3 169.8 25.5 248.8c11.3 78.9 31.1 156.4 34.5 222.9c3.3 66.5-10 122.1-16.9 149c-7 26.9-7.6 24.8-32.5 26.5c-24.8 1.6-73.8 6.9-98.3-3c-24.5-10-24.5-35.1-26.1-68.9c-1.7-33.7-5-76.1-11.9-116.2c-7-40-17.6-77.7-26.9-110.8c-9.2-33.1-17.2-61.6-19.5-81.5c-2.3-19.8 1-31.1 16.2-44.7c15.2-13.5 42.4-29.4 49-23.5c6.7 6-7.3 33.8-16.5 54.3c-9.3 20.5-13.9 33.8-3.7 39.7c10.3 6 35.5 4.7 49.7 5.3c14.2 .7 17.5 3.4 8.3 12c-9.3 8.6-31.1 23.1-37.8 76.8c-6.6 53.6 2 146.3 8 190.3c5.9 44 9.2 39.4-1.7 8.3c-10.9-31.1-36.1-88.7-63.2-143.9c-27.2-55.2-56.4-107.9-73.6-117.5c-17.3-9.6-22.5 23.9-24.8 71.5c-2.2 47.5-1.6 109.1 5.4 158.7c7 49.7 20.2 87.4 46.3 91c26.2 3.6 65.3-26.8 116.6-40.7c51.3-13.9 114.8-11.2 167.5 2c52.6 13.3 94.3 37.1 114.2 40.4c19.8 3.3 17.8-13.9 11.5-53.6c-6.3-39.7-16.8-102-33.1-149.6c-16.2-47.7-38-80.8-32.4-126.5c5.6-45.7 38.7-103.9 63.2-146.3c24.5-42.4 40.4-68.8 41-45c.6 23.9-13.9 98-21.2 163.2c-7.2 65.2-7.3 121.5-4.3 130.8c3 9.2 9-28.5 23.2-62.6c14.2-34.1 36.7-64.6 56.3-88.7c19.5-24.2 36.1-42 25.8-52.3c-10.3-10.3-47.3-12.9-46.4-31.8c1-18.9 40-53.9 63.6-80.1c23.6-26.1 31.4-43.4 19.9-47.3c-11.6-4-42.7 5.3-65.2 9.6c-22.6 4.3-36.5 3.6-45.7 0c-9.3-3.7-13.9-10.3-24.2-31.8c-10.3-21.5-26.1-57.9-37.4-94.4c-10.2-33.4-17.3-67.7-21.2-102.4c-3.3-29.6-3.3-52.5 18.2-68.2c21.5-15.7 64.6-24.3 95.8-23c31.3 1.3 50.9 12.6 50.2 23.7c-0.7 11.1-21.5 22-49.3 28.8c-27.8 6.8-62.6 9.4-79.6 11.1c-17.1 1.6-16.4 2.3-6.2-3.5c10.3-5.8 30.2-18 40.9-7.1c10.8 10.8 12.4 45 11.9 69.3c-0.5 24.4-3.1 38.9-1 45.5c2.2 6.7 9.1 5.3 13.4 8.5c4.3 3.1 6 10.7 6.2 23.5c.1 12.7-1.2 30.6 6.7 33.9c8 3.3 25.2-8 37.6-20.2c12.4-12.2 20-25.5 13.1-15.4c-6.9 10.1-28.5 43.5-42.4 64.1c-13.9 20.5-20.2 28.1 .9 13.4c21-14.8 69.3-51.8 84.4-97.5c15-45.7-3.2-100-13.8-115.7c-10.6-15.7-13.5 7.1-10.6 38.6c3 31.4 12 71.5 18.6 104.7c6.6 33.2 10.9 59.7 19.7 61.4c8.8 1.7 22-21.5 23.3-63.6c1.4-42-9.2-102.9-24.1-147.8c-14.9-44.8-34.1-73.6-60.6-111.5c-26.5-37.9-60.2-84.9-73-112.7c-12.8-27.8-4.5-36.4 7.3-51.2c11.7-14.7 27-35.5 27.3-48.5c.3-12.9-14.3-17.8-26.3-32.2c-12.1-14.4-21.7-38.3-34-49.3c-12.2-11.1-27.1-9.5-36.4-1.2c-9.2 8.3-12.9 23.2-6 36.9c6.9 13.7 24.5 26.3 31.8 18.4c7.3-8 4.3-36.4-2.1-51.5c-6.5-15.1-16.4-16.7-20.9-7.9c-4.5 8.8-3.5 28 1.5 40c5 12.1 13.9 17 11.8 10.1c-2.2-6.9-15.4-25.8-26.2-33.1c-10.8-7.2-19-3-18.7 9.1c.3 12.1 9.3 32 13.9 36.1c4.6 4.2 5-7.4-2.2-15.5c-7.1-8.2-21.6-12.8-28.3-8.2c-6.6 4.7-5.2 18.6 4.4 34.8c9.6 16.2 27.4 34.8 41.3 41.2c13.9 6.5 23.9 .8 38.9-9.7c15.1-10.6 35.3-26.2 57.1-6c21.9 20.1 45.4 76.1 76.8 125.7c31.5 49.7 70.9 93 97.8 141.2c27 48.2 41.6 101.1 52.3 146.5c10.8 45.3 17.7 83.1 24.4 135.2c6.6 52.1 12.9 118.7 20 180.4c7 61.7 15 118.7 21 156.7c5.9 38.1 9.9 57.3-9.6 67.2c-19.6 10-62.6 10.6-107.3 18.6c-44.7 7.9-91 23.1-107.9 21.2c-16.9-2-4.3-21.2 37.4-37.1c41.7-15.9 112.5-28.5 149-31.5c36.4-2.9 38.4 3.7 39.7 12.9c1.3 9.3 2 21.2 7.8 41.6c5.7 20.5 16.7 49.4 21.1 70.6c4.4 21.2 2.3 34.7 16.4 38.4c14.1 3.8 44.4-2.2 66.9-3.2c22.5-1 37.2 3 52 7" stroke="#000" stroke-width="7.9px" stroke-linecap="round" stroke-linejoin="round" fill="none"/></g></g></svg>