<svg xmlns="http://www.w3.org/2000/svg" viewBox="0 0 1411.2 1568.9"><g data-name="Layer 2"><g data-name="Layer 1"><path class="cls-1" d="M603.2 544.9c16-1.1 32-2.3 51.2-2.9c19.3-0.6 41.9-0.6 57.8-10.2c15.9-9.6 25.1-28.8 29.5-53.2c4.4-24.3 4-53.7-5.2-76.5c-9.2-22.8-27-38.9-31.2-55.2c-4.1-16.4 5.3-33 19.7-45.7c14.4-12.8 33.7-21.7 43.4-26.2c9.6-4.4 9.6-4.5 4.8-28.4c-4.8-23.9-14.4-71.8-18.2-117c-3.8-45.2-1.9-87.6-4.6-108.4c-2.7-20.8-10.1-20.1-79.4-10.7c-69.3 9.3-200.5 27.2-322.2 35.8c-121.6 8.6-233.7 7.8-290.2 7.4c-56.4-0.4-57.2-0.4-52.7 58.4c4.4 58.8 14.2 176.4 17.7 267.6c3.5 91.3 .8 156.3 26.6 189.2c25.9 32.9 80.4 33.7 112.2 34.9c31.7 1.1 40.6 2.7 96.5-1.5c55.9-4.1 158.5-14 211.2-22.4c52.8-8.4 55.5-15.4 55.3-51.5c-0.3-36.1-3.5-101.2-10.3-132.3c-6.8-31.1-17.2-28.2-59.2-49.2c-42-21-115.5-65.9-152.4-91.9c-36.9-26.1-37.1-33.3 1.9-12.5c39 20.7 117.2 69.4 167.6 95.4c50.4 26.1 72.7 29.6 88.4 33.1c15.6 3.5 24.6 7 36.4 7.6c11.7 .6 26.3-1.7 41.2-5.1c14.9-3.4 30.1-7.9 36.1-5.8c6 2.2 3 10.9-14 20c-16.9 9.1-47.7 18.4-66.4 19.1c-18.8 .6-25.6-7.4-28.3-8.1c-2.6-0.6-1.1 6-3.9 10.4c-2.8 4.3-10 6.5-17.8 2.6c-7.8-3.9-16.2-13.8-14.1-20.5c2.1-6.7 14.6-10.3 31-7.7c16.4 2.5 36.9 11.1 58 16.9c19.8 5.4 40.1 8.7 60.6 10c14.2 1 28.5 .5 42.6-1.6c11.5-1.6 21.1-4 27.4 5.2c6.4 9.2 9.3 30.1 13 61.2c3.7 31.1 8 72.3 7 116.1c-0.9 43.8-7.2 90.2-5.6 125.6c1.5 35.4 10.9 59.9 21.4 68.1c10.5 8.2 22.2 0 24-20.8c1.7-20.9-6.5-54.3-20.5-93.7c-14-39.3-33.9-84.4-37.6-126.7c-3.8-42.2 8.4-81.5 15-117.4c6.5-36 7.3-68.4 6.6-82.2c-0.7-13.7-2.8-8.6-10 4.1c-7.1 12.8-19.1 33.2-26.9 41.6c-7.8 8.3-11.2 4.6-19.3-2.5c-8.1-7.1-20.8-17.6-25.4-26c-4.6-8.3-1-14.6 8.1-27.1c9.1-12.6 23.9-31.5 37.7-43.4c13.9-12 26.7-17.1 40.3-20.3c13.7-3.2 28.1-4.6 37.4-6.6c9.4-2 13.7-4.8 15.8-12.4c2.1-7.7 2.1-20.4 1.3-33.7c-0.8-13.3-2.5-27.2-6.5-34.7c-4-7.5-10.3-8.5-12.5-2.7c-2.2 5.8-0.3 18.4 3.8 23.7c4.2 5.2 10.7 3.1 13.9-1.5c3.3-4.6 3.3-11.6 4.8-22.2c1.6-10.6 4.7-24.8 14.2-33.8c9.6-8.9 25.5-12.6 37.7-10.1c12.2 2.6 20.5 11.3 25.5 23.1c5 11.8 6.5 26.6 3.8 42.6c-2.7 16.1-9.7 33.4-17 43.1c-7.3 9.8-14.9 11.9-19.9 11.3c-4.9-0.6-7.2-3.9-8.3-9.3c-1.1-5.5-1-13.1 2-16.2c2.9-3.1 8.6-1.7 12-1.5c3.4 .2 4.5-0.8 4.1-4c-0.5-3.2-2.7-8.7-2-14.9c.7-6.3 4.2-13.3 5.5-22.6c1.2-9.3 .2-21-2.1-27.9c-2.3-6.9-6-9.1-13.2-6.2c-7.3 2.8-18.1 10.6-24 20.9c-5.9 10.3-6.9 23-7.3 35c-0.4 12-0.3 23.5 1.4 32.3c1.7 8.8 5 15 12.1 19c7.1 4 18 5.7 22.2 8.3c4.2 2.5 1.6 5.8-2.5 11.8c-4 6.1-9.7 14.8-14 17.3c-4.2 2.6-7.2-1.1-15.6-6.3c-8.5-5.1-22.5-11.8-27.6-11.9c-5.1-0.2-1.2 6.1 5.7 15c6.9 8.8 16.9 20.3 24.2 24.2c7.3 4 12 .5 20.4-9c8.5-9.4 20.8-24.8 30.1-32.5c9.4-7.7 15.8-7.7 22.6-3.6c6.8 4.1 14 12.3 25.6 32.9c11.5 20.7 27.5 53.8 33.8 71.6c6.4 17.8 3.1 20.3-4.2 22.8c-7.3 2.6-18.6 5.1-25.3 8.3c-6.6 3.2-8.5 7.1-9.5 17.5c-1 10.4-1 27.4-0.8 50.4c.2 23.1 .6 52.3-1.1 69c-1.8 16.6-5.7 20.7-8.5 25.7c-2.8 5.1-4.6 11.1-3.4 12.4c1.2 1.3 5.2-2.2 8.2-2.8c2.9-0.6 4.6 1.7 5 7.3c.4 5.5-0.6 14.3 .5 20c1.1 5.8 4.2 8.5 8 8.8c3.8 .3 8.3-1.8 10.7-22.1c2.5-20.2 2.8-58.6 3.3-90.5c.5-31.9 1.1-57.4 4.7-72.9c3.6-15.5 10.2-21 6.4-20.4c-3.8 .6-18 7.2-27.5 12.9c-9.5 5.8-14.4 10.7-17.7 3.6c-3.3-7-5.1-25.9-8.6-35.1c-3.5-9.2-8.8-8.9-9.3 .6c-0.5 9.4 3.8 27.9 1.6 40.8c-2.2 12.8-11 20-34.7 19.1c-23.8-0.8-62.5-9.8-83.5-10.8c-21.1-0.9-24.4 6.1-12.7 12.9c11.7 6.8 38.4 13.4 62 13.2c23.7-0.2 44.4-7.2 55.1-9.4c10.8-2.3 11.7 .3 13 29.6c1.3 29.2 2.8 85.3 4.6 140.2c1.7 54.9 3.7 108.6 7.2 138.8c3.5 30.2 8.5 36.8 24.1 39.9c15.6 3.1 41.7 2.8 63.5 15.7c21.8 13 39.3 39.2 51.8 64.5c12.4 25.3 19.8 49.7 43 62.2c23.1 12.6 62.1 13.4 95.3 6.2c33.2-7.2 60.6-22.4 83.2-20.9c22.6 1.6 40.3 19.9 37.7 41.4c-2.5 21.5-25.3 46.1-43.8 67.7c-18.5 21.6-32.7 40.1-26.2 48.4c6.5 8.2 33.8 6.3 56.8 4.3c23.1-1.9 42-3.9 52.5-16.6c10.5-12.8 12.6-36.3 9.4-72.3c-3.2-36-11.8-84.5-18.6-111.9c-6.8-27.5-11.8-33.9-21.8-39.5c-9.9-5.5-24.7-10.2-29.7-25.6c-5.1-15.5-0.4-41.8 2.1-55.5c2.5-13.7 2.9-14.9 8.7-16.2c5.7-1.2 16.8-2.6 21.2-4.1c4.4-1.4 2-3-4.5-3.7c-6.5-0.6-17.2-0.4-13.8-6c3.4-5.5 20.9-16.8 25.7-22.1c4.7-5.2-3.2-4.4-10.1-0.8c-7 3.6-12.8 9.9-19.4 8.7c-6.6-1.2-14.1-10.2-27.3-17.2c-13.2-7-32.3-12.1-51.2-12.2c-18.8-0.1-37.5 4.8-49.2 14.2c-11.7 9.5-16.4 23.5-19.3 38.7c-2.9 15.2-4 31.6-3 45.4c1.1 13.9 4.4 25.4 10.7 33.9c6.4 8.5 15.7 13.9 27.2 10.5c11.5-3.4 25-15.7 27.8-27c2.8-11.4-5.4-21.9-13-25.6c-7.6-3.7-14.6-0.6-16.3 6.9c-1.8 7.5 1.7 19.4 5.5 24.1c3.8 4.8 7.9 2.4 7.1-6.9c-0.8-9.3-6.4-25.6-13.5-31c-7.1-5.4-15.7 .3-19.5 1.4c-3.8 1-2.8-2.5-3.6-11.4c-0.8-9-3.3-23.4-1.6-38.3c1.6-14.9 7.5-30.2 20.4-41.7c15-13 34.9-18.9 54.5-16.2c21.5 2.9 44.5 16.4 57.2 34.3c12.8 17.9 15.3 40.3 10 61.8c-5.2 21.5-18.2 42.1-32 56.7c-13.7 14.6-28.1 23.1-44.2 28.2c-16 5.1-33.7 6.7-46.5 12c-12.7 5.4-20.5 14.5-35.5 26.5c-15 12-37.2 26.8-54.1 37.6c-16.9 10.8-28.6 17.6-32 24.4c-3.4 6.8 1.4 13.6 6.7 26.7c5.3 13 10.9 32.3 8 41.6c-2.9 9.2-14.5 8.5-23.6-2.8c-9.1-11.3-15.9-33.1-16.7-43.7c-0.7-10.5 4.5-9.7 10.2-1.7c5.6 7.9 11.6 23.1 19 33.4c7.3 10.4 15.8 15.8 33 16.4c17.1 .6 42.8-3.7 57.2-2.6c14.4 1.1 17.5 7.5 19.8 16c2.4 8.4 3.9 18.9 11.5 41.1c7.6 22.2 21.2 56.1 22.8 83c1.6 26.8-9 46.6-25.9 50c-16.9 3.3-40.3-10-55.7-27.3c-15.3-17.3-22.7-38.7-16.3-55.7c6.4-16.9 26.6-29.4 46.5-28.8c19.9 .6 39.3 14.2 66.8 20.8c27.4 6.7 62.9 6.3 90.7-2.1c27.8-8.4 48.1-24.7 61.7-26.1c13.6-1.3 20.6 12.3 14.6 34.5c-6.1 22.2-25.1 52.9-58.6 71.4c-33.5 18.5-81.4 24.7-111.3 31.5c-30 6.9-42.1 14.2-63.3 35.5c-21.2 21.2-51.6 56.2-92.7 76.9c-41.1 20.6-92.8 26.8-132 13.4c-39.1-13.4-65.6-46.6-101.4-58c-35.8-11.5-80.9-1.4-123.4 9.5c-42.4 10.9-82.1 22.6-107.8 31.6c-25.7 8.9-37.4 15.1-42.8 41.4c-5.5 26.3-4.7 72.6-8 109.2c-3.4 36.6-10.8 63.5-17.8 39.1c-7-24.3-13.6-99.8-17.5-161.7c-3.9-61.9-5.1-110.2-17.5-139.4c-12.5-29.2-36.2-39.3-60-45c-23.7-5.7-47.4-6.8-54.8 24.3c-7.5 31.2 1.5 94.7 7.5 154.6c6.1 60 9.2 116.4 2.6 152.6c-6.6 36.3-23 52.2-26.9 38c-3.9-14.2 4.7-58.6 1.4-137.2c-3.3-78.7-18.5-191.6-26.9-251.5c-8.4-60-9.9-67 39.5-88.6c49.5-21.6 149.9-57.8 226.6-82.1c76.7-24.4 129.7-36.8 150-38.5c20.3-1.6 8.1 7.5-44.7 29.3c-52.7 21.8-145.9 56.3-209.2 80.4c-63.3 24.2-96.6 38-87.6 56.6c8.9 18.6 60.1 41.9 91.8 61.3c31.6 19.4 43.7 34.7 49.2 55.5c5.6 20.7 4.6 46.8 8.9 59.2c4.3 12.5 13.8 11.3 53.8-3.4c40-14.7 110.3-42.7 154.5-55.8c44.2-13 62.1-10.9 52.7-2.6c-9.4 8.3-46.2 22.7-89 39.6c-42.9 16.9-91.7 36.4-123 46c-31.2 9.6-44.8 9.4-54.1-11.5c-9.2-20.9-14.1-62.5-4.1-87.6c10.1-25 35-33.3 70.3-42.6c35.4-9.2 81.1-19.4 103-25.4c21.9-6 20-8 10.8-7.6c-9.1 .4-25.5 3.1-38.8-0.3c-13.3-3.4-23.7-12.9-20.8-22.6c2.8-9.6 18.8-19.3 41.4-29.4c22.7-10 52.1-20.3 80.8-14.4c28.7 6 56.7 28.2 72 54.7c15.3 26.6 17.8 57.6 19.3 85.2c1.4 27.6 1.8 52 15.6 58c13.9 6 41.1-6.2 74.3-17.6c33.2-11.4 72.3-21.9 91.4-28.6c19.1-6.8 18.1-9.7 14.7-34.8c-3.4-25.1-9.3-72.4-19.1-110c-9.8-37.6-23.6-65.3-40.5-84.3c-16.8-19-36.7-29-50.4-35c-13.6-6.1-21-8.1-34-2.8c-13 5.2-31.6 17.9-41 24.2c-9.3 6.4-9.3 6.4-14.6 4.6c-5.2-1.7-15.7-5.2-26.8-24.5c-11.1-19.3-22.8-54.4-15.8-82c7-27.6 32.7-47.9 59.6-55.9c26.8-7.9 54.9-3.7 71.6 12.1c16.7 15.8 22.2 43 16.6 70.9c-5.7 27.8-22.4 56.2-44.8 74.1c-22.4 17.9-50.4 25.3-80.8 34.1c-30.4 8.7-63.1 18.9-82.1 31.5c-19.1 12.7-24.6 27.9-25.7 44.6c-1.2 16.7 1.9 35 7.2 42.4c5.2 7.5 12.6 4 24.7 2c12.1-1.9 28.8-2.3 39.3 2.9c10.5 5.3 14.7 16.2 20 34.5c5.3 18.3 11.5 44 16.9 67.1c5.5 23.2 10.2 43.8-8.5 57.3c-18.7 13.4-60.7 19.6-71.8 26.1c-11.1 6.4 8.7 13 31.1 26.4c22.4 13.4 47.3 33.7 71.6 43.4c24.4 9.8 48.1 9 82.9-7.6c34.9-16.5 80.8-48.8 105.5-77.8c24.8-29 28.3-54.7 24-58.8c-4.3-4.1-16.3 13.4-51.2 27c-34.9 13.6-92.5 23.4-135.9 23.8c-43.4 .4-72.6-8.6-101.2-14c-28.6-5.5-56.6-7.4-71.6 7.5c-15 15-17 47-18.9 78.9" stroke="#000" stroke-width="8.4px" stroke-linecap="round" stroke-miterlimit="2.6" fill="none"/></g></g></svg>